<?xml version="1.0" standalone="no"?>
<!DOCTYPE svg PUBLIC "-//W3C//DTD SVG 1.1//EN" "http://www.w3.org/Graphics/SVG/1.1/DTD/svg11.dtd" >
<!--
2013-9-30: Created.
-->
<svg>
<metadata>
Created by iconfont
</metadata>
<defs>

<font id="iconfont" horiz-adv-x="1024" >
  <font-face
    font-family="iconfont"
    font-weight="500"
    font-stretch="normal"
    units-per-em="1024"
    ascent="896"
    descent="-128"
  />
    <missing-glyph />
    
    <glyph glyph-name="zhanghaomima" unicode="&#59235;" d="M722.9375 18.375c22.5 0 42.1875-19.6875 42.1875-42.1875s-19.6875-42.1875-42.1875-42.1875h-104.0625l-84.375 84.375h188.4375zM849.5 819.9375c67.5 0 123.75-53.4375 126.5625-120.9375V215.25c0-67.5-53.4375-123.75-120.9375-126.5625H464.1875l-84.375 84.375H849.5c22.5 0 39.375 16.875 42.1875 39.375V693.375c0 22.5-19.6875 42.1875-42.1875 42.1875H202.625c-22.5 0-39.375-16.875-42.1875-39.375V392.4375l-84.375 84.375V693.375C76.0625 760.875 129.5 817.125 197 819.9375H849.5zM765.125 665.25c30.9375 0 56.25-25.3125 56.25-56.25v-309.375c0-30.9375-25.3125-56.25-56.25-56.25H309.5L230.75 322.125V609c0 30.9375 25.3125 56.25 56.25 56.25h478.125z"  horiz-adv-x="1056" />

    
    <glyph glyph-name="erweima2" unicode="&#59237;" d="M716.54545479 15.81818174h81.81818173v-81.81818174h-81.81818173v81.81818174z m163.63636347 0h81.81818174v-81.81818174h-81.81818174v81.81818174z m-81.81818173 327.27272695v-81.81818174h81.81818173v81.81818174h81.81818174v-245.45454522h-245.45454521v81.81818174h-81.81818174v-223.63636377l-81.81818174 81.81818262V343.09090869h245.45454522z m-327.27272784 0v-223.63636289l-81.81818174 81.81818173V261.27272695H329.27272753l-81.81818173 81.81818174H471.09090869zM962 834v-409.09090869H552.90909131V834h409.09090869zM471.09090869 834v-409.09090869H165.63636406L62 528.5454545V834h409.09090869z m-81.81818174-81.81818174H143.81818174v-245.45454521h245.45454521V752.18181826z m490.90909131 0h-245.45454521v-245.45454521h245.45454521V752.18181826zM307.45454521 670.36363652v-81.81818173H225.63636348V670.36363652h81.81818173z m490.90909131 1e-8v-81.81818174h-81.81818173V670.36363652h81.81818173z"  horiz-adv-x="1024" />

    
    <glyph glyph-name="guanji" unicode="&#59117;" d="M700.64 825.44a32 32 0 1 1-25.12-58.88 416 416 0 1 0-326.88 0 32 32 0 1 1-25.12 58.88 480 480 0 1 1 377.12 0zM512 352a32 32 0 0 1 32 32V832a32 32 0 0 1-64 0v-448a32 32 0 0 1 32-32z"  horiz-adv-x="1024" />

    
    <glyph glyph-name="tupian1" unicode="&#59234;" d="M891.6875 805.875c25.3125 0 42.1875-16.875 42.1875-42.1875v-759.375c0-25.3125-16.875-42.1875-42.1875-42.1875H132.3125c-25.3125 0-42.1875 16.875-42.1875 42.1875V763.6875c0 25.3125 16.875 42.1875 42.1875 42.1875h759.375z m-21.09375-392.34375l-337.5-265.78125c-12.65625-8.4375-29.53125-8.4375-37.96875 0l-4.21875 4.21875L339.03125 299.625l-185.625-130.78125v-143.4375h717.1875V413.53125z m0 329.0625h-717.1875v-493.59375l172.96875 118.125c12.65625 8.4375 25.3125 8.4375 37.96875 0h4.21875l147.65625-147.65625 354.375 278.4375V742.59375zM343.25 594.9375c16.875 0 29.53125-8.4375 37.96875-21.09375 8.4375-12.65625 8.4375-29.53125 0-42.1875-8.4375-12.65625-21.09375-21.09375-37.96875-21.09375-25.3125 0-42.1875 16.875-42.1875 42.1875s16.875 42.1875 42.1875 42.1875z"  horiz-adv-x="1024" />

    
    <glyph glyph-name="biaoqing1" unicode="&#59236;" d="M272 506.18181844c0-34.90909125 26.18181844-61.09090875 61.09090875-61.09090969 34.90909125 0 61.09090875 26.18181844 61.09090969 61.09090969 0 34.90909125-26.18181844 61.09090875-61.09090969 61.09090875-34.90909125-4.36363594-61.09090875-30.54545437-61.09090875-61.09090875z m362.18181844 0c0-34.90909125 26.18181844-61.09090875 61.09090875-61.09090969 34.90909125 0 61.09090875 26.18181844 61.09090875 61.09090969 0 34.90909125-26.18181844 61.09090875-61.09090875 61.09090875-34.90909125-4.36363594-61.09090875-30.54545437-61.09090875-61.09090875z m-122.18181844-392.72727281c-82.90909125 0-170.18181844 43.63636406-218.18181844 109.09090874-17.45454563 26.18181844-30.54545437 52.36363594-43.63636312 78.54545438-4.36363594 17.45454563 4.36363594 34.90909125 17.45454562 43.63636406 17.45454563 4.36363594 30.54545437-4.36363594 34.90909032-17.45454562 4.36363594-26.18181844 17.45454563-43.63636406 30.54545437-61.09090875 48-61.09090875 109.09090875-91.63636406 174.54545531-91.63636407s130.90909125 30.54545437 170.1818175 82.90909125c13.09090875 17.45454563 26.18181844 43.63636406 30.54545438 61.09090875 4.36363594 17.45454563 26.18181844 26.18181844 34.90909125 17.45454563 17.45454563-4.36363594 26.18181844-26.18181844 17.45454562-34.90909125-4.36363594-30.54545437-26.18181844-52.36363594-43.63636406-78.54545438-34.90909125-65.45454562-122.18181844-109.09090875-205.09090875-109.09090875z m0-209.45454563C250.18181844-96 32 122.18181844000003 32 384S250.18181844 864 512 864s480-218.18181844 480-480-218.18181844-480-480-480z m0 894.54545437c-231.27272719 0-414.54545438-187.63636406-414.54545437-414.54545437 0-231.27272719 187.63636406-414.54545438 414.54545437-414.54545438 231.27272719 0 414.54545438 187.63636406 414.54545438 414.54545438 0 231.27272719-183.27272719 414.54545438-414.54545438 414.54545437z"  horiz-adv-x="1024" />

    
    <glyph glyph-name="guanbi5" unicode="&#59233;" d="M911.375 744l-39.375 39.375L512 423.375 152 783.375l-39.375-39.375L472.625 384 112.625 24l39.375-39.375L512 344.625l360-360 39.375 39.375L551.375 384z"  horiz-adv-x="1024" />

    
    <glyph glyph-name="shengyinjingyinxianxing" unicode="&#59727;" d="M816.156444 598.186667L857.941333 640C909.710222 567.438222 938.666667 478.435556 938.666667 384.625778c0-116.622222-44.714667-225.763556-122.368-305.066667a27.392 27.392 0 0 0-40.334223 0.824889 31.573333 31.573333 0 0 0 0.768 42.752c66.616889 67.982222 104.903111 161.479111 104.903112 261.489778 0 78.222222-23.409778 152.405333-65.479112 213.560889z m-127.175111-127.175111l41.671111 41.671111a235.121778 235.121778 0 0 0 37.461334-127.857778c0-61.696-23.665778-119.637333-65.137778-162.787556a28.017778 28.017778 0 0 0-40.248889-0.369777 29.496889 29.496889 0 0 0-0.369778 41.073777 175.559111 175.559111 0 0 1 48.867556 122.083556c0 30.805333-7.822222 60.330667-22.243556 86.186667z m-376.32-376.32l41.102223 41.102222L540.444444 14.193778V322.474667l56.888889 56.888889v-365.169778a56.888889 56.888889 0 0 0-87.950222-47.672889l-196.750222 128.142222z m-216.177777 25.173333A56.632889 56.632889 0 0 0 85.333333 153.713778V594.858667a56.888889 56.888889 0 0 0 56.888889 56.888889h167.111111l197.006223 147.626666A56.888889 56.888889 0 0 0 597.333333 753.806222v-133.12l-56.888889-56.888889v190.008889l-212.167111-159.004444H142.222222v-429.226667l-45.738666-45.738667zM802.503111 745.443556a28.444444 28.444444 0 0 0 40.220445-40.220445l-680.391112-680.391111a28.444444 28.444444 0 1 0-40.220444 40.220444l680.391111 680.391112z"  horiz-adv-x="1024" />

    
    <glyph glyph-name="shengyinyinliang" unicode="&#58986;" d="M816.299 79.56a27.392 27.392 0 0 0-40.335 0.824 31.573 31.573 0 0 0 0.768 42.752c66.617 67.982 104.904 161.48 104.904 261.49 0 99.442-37.832 192.398-103.766 260.323a31.573 31.573 0 0 0-0.569 42.78 27.392 27.392 0 0 0 40.306 0.598c76.857-79.19 121.06-187.705 121.06-303.701 0-116.622-44.715-225.764-122.368-305.067zM702.976 222.036a28.018 28.018 0 0 0-40.249-0.37 29.497 29.497 0 0 0-0.37 41.074 175.56 175.56 0 0 1 48.868 122.084 175.56 175.56 0 0 1-47.502 120.69 29.497 29.497 0 0 0 0.853 41.073 28.018 28.018 0 0 0 40.22-0.853 234.325 234.325 0 0 0 63.318-160.91c0-61.696-23.666-119.637-65.138-162.788zM509.383-33.479l-200.05 130.304h-167.11a56.889 56.889 0 0 0-56.89 56.889V594.859a56.889 56.889 0 0 0 56.89 56.889h167.11L506.34 799.374a56.889 56.889 0 0 0 90.993-45.568v-739.64a56.889 56.889 0 0 0-87.95-47.674z m31.061 47.673v739.64L328.277 594.83H142.222v-441.116H326.23l214.187-139.492z"  horiz-adv-x="1024" />

    
    <glyph glyph-name="pingjia1" unicode="&#59116;" d="M814.16772073 135.77043173000004a403.17161352 403.17161352 0 1 1-693.84890533 171.31278104A405.22061755 405.22061755 0 0 1 698.57980529 42.922439850000046l151.34503932-77.78178836a24.10592597 24.10592597 0 0 1 32.66353015 32.94476587z m-514.66152173 200.88271747A70.67053976 70.67053976 0 1 0 369.13214908 407.40404214a70.14824451 70.14824451 0 0 0-69.58577308-70.67054058z m209.76173355 0A70.67053976 70.67053976 0 1 0 578.85370563 407.32368896a70.14824451 70.14824451 0 0 0-69.58577308-70.5901874z m210.24385181 0a70.67053976 70.67053976 0 1 0 70.06789215 70.67053976 70.38930405 70.38930405 0 0 0-70.06789214-70.5901874z"  horiz-adv-x="1024" />

    
    <glyph glyph-name="xialazhankai" unicode="&#59101;" d="M515.1640625 274.3125L181.8828125 599.15625c-21.09375 21.09375-54.84375 21.09375-75.9375 0s-21.09375-50.625 0-71.71875l371.25-362.8125c21.09375-21.09375 54.84375-21.09375 75.9375 0l371.25 362.8125c21.09375 21.09375 21.09375 50.625 0 71.71875s-54.84375 21.09375-75.9375 0L515.1640625 274.3125z"  horiz-adv-x="1031" />

    
    <glyph glyph-name="cha2" unicode="&#59110;" d="M710 213.81818174L536.54545479 387.27272695l173.45454521 173.4545461c8.18181826 9.81818174 8.18181826 22.90909131 0 32.72727216-8.18181826 8.18181826-22.90909131 8.18181826-32.72727305 0L503.81818174 420 330.36363652 593.45454521c-9.81818174 8.18181826-24.54545479 8.18181826-32.72727304-1.63636347-8.18181826-8.18181826-8.18181826-21.27272695 0-31.09090869L471.09090869 387.27272695 297.63636348 213.81818174c-8.18181826-9.81818174-8.18181826-24.54545479 1.63636347-32.72727305 8.18181826-8.18181826 22.90909131-8.18181826 31.09090957 0L503.81818174 354.54545479l173.45454521-173.4545461c8.18181826-8.18181826 22.90909131-8.18181826 32.72727305 0 9.81818174 9.81818174 9.81818174 24.54545479 0 32.72727305zM693.63636348 166.36363653c-8.18181826 0-16.36363653 3.27272695-21.27272696 9.81818173L505.45454521 343.09090869 338.54545479 176.18181826c-11.45454521-11.45454521-31.09090869-11.45454521-42.54545479 0-13.09090869 11.45454521-13.09090869 31.09090869-1.63636348 44.18181827l168.54545479 168.54545478L296 555.81818174c-11.45454521 11.45454521-11.45454521 29.45454521 0 42.54545478 4.90909131 6.54545479 13.09090869 9.81818174 21.27272695 9.81818174s16.36363653-1.63636348 22.90909131-8.18181826l168.54545479-168.54545479 166.90909043 166.90909131c13.09090869 11.45454521 31.09090869 11.45454521 44.18181826 0 6.54545479-6.54545479 9.81818174-13.09090869 9.81818173-21.27272783s-3.27272695-16.36363653-8.18181826-22.90909043L554.54545479 385.63636348l166.90909042-166.90909043c6.54545479-6.54545479 9.81818174-13.09090869 9.81818174-21.27272784s-3.27272695-16.36363653-9.81818174-21.27272695-19.63636348-9.81818174-27.81818174-9.81818173zM503.81818174 367.63636347l180-178.36363652c4.90909131-4.90909131 14.72727305-4.90909131 21.27272695 0 6.54545479 6.54545479 6.54545479 14.72727305 0 21.27272784l-178.36363564 180 178.36363564 180c3.27272695 3.27272695 4.90909131 6.54545479 4.90909131 9.81818173 0 3.27272695-1.63636348 8.18181826-4.90909131 9.81818174-6.54545479 4.90909131-14.72727305 4.90909131-21.27272695 0l-178.36363653-180-180 180c-3.27272695 1.63636348-6.54545479 3.27272695-9.81818174 3.27272695-3.27272695 0-8.18181826-1.63636348-9.81818173-4.90909042-4.90909131-4.90909131-4.90909131-14.72727305 0-19.63636348l178.36363652-178.36363652-180-180c-4.90909131-6.54545479-4.90909131-14.72727305 1.63636348-21.27272784 4.90909131-4.90909131 14.72727305-4.90909131 19.63636347 0L503.81818174 367.63636347zM512-66C263.27272695-66 62 135.27272695 62 384S263.27272695 834 512 834 962 632.72727305 962 384 760.72727305-66 512-66z m0 883.63636347C273.09090869 817.63636348 78.36363652 622.90909131 78.36363652 384S273.09090869-49.63636348 512-49.63636348 945.63636348 145.09090869 945.63636348 384 750.90909131 817.63636348 512 817.63636348z"  horiz-adv-x="1024" />

    
    <glyph glyph-name="fanhuishouye" unicode="&#59103;" d="M342.25748193 214.92021767999995h339.42469219a46.28518506 46.28518506 0 0 0 46.28518506-46.28518506 46.28518506 46.28518506 0 0 0-46.28518506-46.28518506h-339.42469219a46.28518506 46.28518506 0 0 0-46.28518594 46.28518506 46.28518506 46.28518506 0 0 0 46.28518594 46.28518506zM798.10484346-65.96914335999998H225.83481172a157.52391416 157.52391416 0 0 0-157.36963008 157.36963008V450.72780879a156.25878575 156.25878575 0 0 0 60.84959063 124.29115137L420.23259073 800.92152128a157.36963008 157.36963008 0 0 0 192.66979745 0.27771065l281.35221328-217.04666221a158.44961777 158.44961777 0 0 0 61.25072872-124.59971865v-368.18322099a157.52391416 157.52391416 0 0 0-157.40048672-157.33877344zM516.75263018 766.11506191a89.484692 89.484692 0 0 1-54.89422998-18.82264219l-290.91781758-225.87170449A90.16354073 90.16354073 0 0 1 136.3501206 450.72780879v-359.35817871a89.484692 89.484692 0 0 1 89.48469112-89.484692h572.27003174a89.484692 89.484692 0 0 1 89.48469111 89.484692V459.55285107a88.96012646 88.96012646 0 0 1-34.80645937 70.9706171l-281.38306992 217.01580556a89.26869375 89.26869375 0 0 1-54.6473751 18.57578818z"  horiz-adv-x="1024" />

    
    <glyph glyph-name="gengduo3" unicode="&#59104;" d="M300.81965732-65.99678584000003a44.99983916 44.99983916 0 0 0-33.04273886 13.88566494 43.07127451 43.07127451 0 0 0 1.6071372 62.80691836l403.71284356 371.69867285a13.6928083 13.6928083 0 0 1 4.82141162 10.79996133 13.4356667 13.4356667 0 0 1-4.82141162 10.28567724L269.89833886 756.66456182a43.58555859 43.58555859 0 0 0-3.21427353 62.80691836 47.44268789 47.44268789 0 0 0 65.05691045 3.0857036l402.10570635-353.18445292a102.21392109 102.21392109 0 0 0 35.22844599-75.14973193 100.99249629 100.99249629 0 0 0-33.04273974-75.66401514l-403.19855947-372.21295606A47.95697198 47.95697198 0 0 0 300.81965732-65.99678584000003z"  horiz-adv-x="1024" />

    
    <glyph glyph-name="fenxiang1" unicode="&#59106;" d="M725.42860068-65.98368749999997H321.70154258A258.43594043 258.43594043 0 0 0 62 191.15852666V615.44458623A218.38666641 218.38666641 0 0 0 280.55541377 834h203.14319326a38.55867627 38.55867627 0 1 0 0-77.14547666H280.55541377a141.01619414 141.01619414 0 0 1-141.43806123-141.43806123v-424.28606045a181.09359229 181.09359229 0 0 1 182.55606592-179.9967375H727.9879291a155.83780019 155.83780019 0 0 1 156.85028174 156.85028261v239.058167a38.55867627 38.55867627 0 1 0 77.14547666 0v-239.058167a233.77076279 233.77076279 0 0 0-236.55508682-233.99575927zM510.36062363 337.26525352a27.56200078 27.56200078 0 0 0-23.76519433 9.50607773 34.45250097 34.45250097 0 0 0 0 49.92096973L871.6478249 798.39439511a35.29623516 35.29623516 0 1 0 49.9209706-49.92096972l-387.41485341-399.36776133a29.24947002 29.24947002 0 0 0-23.79331846-11.84041054zM909.67213584 560.6862035199999a36.56183731 36.56183731 0 0 0-35.66185313 35.661854V746.08284346h-142.61929013a35.66185401 35.66185401 0 1 0 0 71.295583h156.87840586a57.85207646 57.85207646 0 0 0 57.0364664-57.0364664V596.34805752a35.01499043 35.01499043 0 0 0-35.633729-35.661854z m-21.3746124 185.39663994z"  horiz-adv-x="1024" />

    
    <glyph glyph-name="sousuo5" unicode="&#59107;" d="M446.56923448 833.98533458a379.96960254 379.96960254 0 1 1-1e-8-759.93920509 383.70263731 383.70263731 0 0 1 384.60256524 379.96960254A381.26949873 381.26949873 0 0 1 446.56923448 833.98533458z m-1e-8-79.02701104a303.74236758 303.74236758 0 0 0 304.64229551-300.94259151 303.74236758 303.74236758 0 0 0-304.60896475-301.00925214 317.10796435 317.10796435 0 0 0-217.04930244 86.65973349A299.97600205 299.97600205 0 0 0 138.16057344 454.01573203a309.57523418 309.57523418 0 0 0 308.40866104 300.94259151zM947.82913349 20.617070499999954L808.60693818 159.83926582000004a47.69618467 47.69618467 0 0 1-67.72791533 0 56.02885136 56.02885136 0 0 1-15.06546123-33.86395723 40.86339785 40.86339785 0 0 1 15.06546123-33.86395723l139.22219531-142.98856083a56.02885136 56.02885136 0 0 1 33.86395811-15.06546211 40.86339785 40.86339785 0 0 1 33.86395722 15.06546211 52.2958166 52.2958166 0 0 1 0 71.49427997z"  horiz-adv-x="1024" />

    
    <glyph glyph-name="huiyuan1" unicode="&#59109;" d="M162.99788275 571.86664951l985.31153613-563.04944297A39.9822082 39.9822082 0 0 0 1128.56820364-65.59967842000003H313.08109524a79.96441552 79.96441552 0 0 0-79.11479355 69.96886436zM1303.0405636 571.86664951l-70.96841894-567.69737519a79.66454941 79.66454941 0 0 0-79.06481631-69.96886348H337.52021995a39.9822082 39.9822082 0 0 0-19.9911041 74.41688408zM733.04421224 714.45319864l411.11705302-659.70643096a80.86401562 80.86401562 0 0 0 3.04864278-79.96441554 74.41688408 74.41688408 0 0 0-65.77073174-40.78185204H384.59927005a74.41688408 74.41688408 0 0 0-65.77073174 40.78185204 80.86401562 80.86401562 0 0 0 3.04864278 79.96441554zM719.25034993 714.45319864l437.95511015-659.70643096a76.61590576 76.61590576 0 0 0 3.2485544-79.96441554 79.96441552 79.96441552 0 0 0-69.96886347-40.78185204h-371.23480108zM653.37966283 754.28547334A79.66454941 79.66454941 0 1 1 733.04421224 833.95002188a79.66454941 79.66454941 0 0 1-79.66454941-79.66454854zM1223.42599231 598.45481778a79.66454941 79.66454941 0 1 1 79.66454941 79.66454941 79.66454941 79.66454941 0 0 1-79.71452753-79.66454942zM83.33333333 598.45481778a79.66454941 79.66454941 0 1 1 79.66454941 79.66454941A79.66454941 79.66454941 0 0 1 83.33333333 598.45481778z"  horiz-adv-x="1479" />

    
    <glyph glyph-name="gou" unicode="&#59111;" d="M273.71546612 421.55585882l211.52545328-168.32518644L1012.0364094 738.10471854s35.32750784 32.2103752 66.25905932 7.07349453c9.19154604-7.55305306 19.98162246-29.09324183-3.9963245-62.70233075L524.28500984 38.668012389999944a54.98942436 54.98942436 0 0 0-92.27513184 0.59944852L194.70813146 359.45297660000006s-27.97427145 43.32015682 7.15342119 69.37619267a52.67155619 52.67155619 0 0 0 71.93384012-7.27331045m0 0"  horiz-adv-x="1249" />

    
    <glyph glyph-name="gouwuche6" unicode="&#59112;" d="M959.17530682 644.5129920100001a40.49768381 40.49768381 0 0 1-32.53313863 13.7692131H520.38290592a37.12287662 37.12287662 0 1 1 0-73.77328043h363.80419051l-70.87094604-349.96748154H390.38534229l-19.70887281 138.09710056h295.83557803a41.61136954 41.61136954 0 1 1 0 83.18899155H358.79714844L313.60848325 771.8782072500001A40.22769863 40.22769863 0 0 1 272.13210629 805.82876513H132.95506671a41.61136954 41.61136954 0 1 1 0-83.18899155h112.21233124L321.91050864 194.58372801999997a40.1264544 40.1264544 0 0 1 41.44262943-33.74806942h474.70034756a40.49768381 40.49768381 0 0 1 40.97015579 31.75693396l88.58868338 417.73360556a40.16020276 40.16020276 0 0 1-8.43701798 34.22054224zM352.85748874 108.8636315a73.3683035 73.3683035 0 1 1 73.30080679-73.3683035 73.33455515 73.33455515 0 0 1-73.30080679 73.3683035z m429.30919309 0a73.3683035 73.3683035 0 1 1 73.30080761-73.3683035 73.33455515 73.33455515 0 0 1-73.30080761 73.3683035z"  horiz-adv-x="1066" />

    
    <glyph glyph-name="you1" unicode="&#59113;" d="M940.47622315 313.63148818m-65.05705547-37.5607081l0.03711181 0.02142685q-65.05705547-37.5607081-102.61776446 27.49634649l-225.32139755 390.26810918q-37.5607081 65.05705547 27.49634648 102.61776445l-0.03711182-0.02142685q65.05705547 37.5607081 102.61776446-27.49634648l225.32139756-390.26811007q37.5607081-65.05705547-27.49634648-102.61776357ZM147.62041719 739.55185195A72.85020469 72.85020469 0 0 1 120.10875136 639.01856924L495.6729831 1.9649554699999499a75.97847813 75.97847813 0 0 1 102.63308292-26.99742832 72.85020469 72.85020469 0 0 1 27.51166581 100.57613555L250.2535001 712.6401293a75.97847813 75.97847813 0 0 1-102.63308291 26.91172265z"  horiz-adv-x="1024" />

    
    <glyph glyph-name="zuo1" unicode="&#59114;" d="M383.95852138 833.98758808m65.05705547-37.56070897l0 0q65.05705547-37.5607081 27.49634649-102.61776359l-225.32139756-390.26810917q-37.5607081-65.05705547-102.61776357-27.49634737l0 0q-65.05705547 37.5607081-27.49634737 102.61776446l225.32139756 390.26810918q37.5607081 65.05705547 102.61776445 27.49634649ZM425.65108115-24.98962001999996a75.97847813 75.97847813 0 0 1 102.59022921 26.95457549L903.80554209 639.01856924a72.85020469 72.85020469 0 0 1-27.46881211 100.49042988 75.97847813 75.97847813 0 0 1-102.63308291-26.91172266l-375.43567236-637.22502597a72.85020469 72.85020469 0 0 1 27.38310644-100.36187051z"  horiz-adv-x="1024" />

    
    <glyph glyph-name="vip12" unicode="&#59115;" d="M295.44580075 13.211425780000013h1544.95239235L1596.45021054 754.78857422H295.44580075zM295.44580075 754.78857422h1544.95239235l-243.94798256-741.57714844H295.44580075zM619.32962033 179.84999060999996c-16.7472837 0-31.94961524 15.1096344-44.74182105 46.13227892L426.51956174 587.90281654h114.54277015l103.29551721-248.58283974 165.80429053 248.58283974h114.32647729l-248.18115258-362.66212417c-21.69113159-30.12657166-41.03393531-45.39070105-56.97784401-45.39070176z m272.25151063 6.17981004l60.12954688 402.15110732h106.44722009l-60.9329226-402.3365016z m654.28733849 251.73454261a163.54866052 163.54866052 0 0 0-66.43295336-108.14666724 207.36351013 207.36351013 0 0 0-124.18327307-40.84854174h-178.59649635l-15.17143297-101.3179779h-105.67474365l31.14624023 204.7988894h294.71511865a65.38238549 65.38238549 0 0 1 38.43841529 12.76130652 50.95252967 50.95252967 0 0 1 20.11528015 31.82601953 35.78109742 35.78109742 0 0 1-9.6714015 33.9889524 49.99465966 49.99465966 0 0 1-35.28671313 12.17422509h-292.98477149l84.97238136 105.05676293h214.68658447a157.30705261 157.30705261 0 0 0 114.54277086-40.16876244 125.01754737 125.01754737 0 0 0 29.35409523-110.21690369z m0 0"  horiz-adv-x="2133" />

    
    <glyph glyph-name="youhuiquan1" unicode="&#59099;" d="M1052.74181844 251.97818156000005l-2.18181844-139.63636312c0-26.18181844-10.90909125-52.36363594-30.54545437-69.8181825-19.63636406-19.63636406-45.81818156-30.54545437-72-28.36363594l-750.54545438 4.36363594c-54.54545437 0-100.36363594 43.63636406-100.36363687 100.36363687v2.18181844l2.18181843 139.63636313c0 21.81818156 17.45454563 39.27272719 39.27272719 37.09090968 50.18181844 0 89.45454563 41.45454563 87.27272719 91.63636313 0 48-37.09090875 85.09090875-85.09090875 87.27272718-10.90909125 0-19.63636406 4.36363594-26.18181844 10.90909125-6.54545437 6.54545437-10.90909125 17.45454563-10.90909125 28.36363594l2.18181844 117.8181825c0 26.18181844 6.54545437 74.18181844 26.18181844 91.63636313 19.63636406 19.63636406 45.81818156 28.36363594 72 28.36363687l750.54545437-4.36363687c54.54545437-2.18181844 98.18181844-45.81818156 100.36363594-102.54545438l2.18181844-139.63636406c0-21.81818156-17.45454563-39.27272719-39.27272719-39.27272719-50.18181844 2.18181844-91.63636406-37.09090875-91.63636313-87.27272719-2.18181844-50.18181844 37.09090875-91.63636406 87.27272719-91.63636312h2.1818175c10.90909125 0 19.63636406-4.36363594 26.18181844-10.90909125 6.54545437-6.54545437 10.90909125-15.27272719 10.90909125-26.18181844z m-643.63636406 272.72727281c-15.27272719 0-28.36363594-13.09090875-28.36363594-28.36363593 0-15.27272719 13.09090875-28.36363594 28.36363594-28.36363688l342.54545437 2.18181844c15.27272719 0 28.36363594 13.09090875 28.36363688 28.36363594 0 4.36363594-2.18181844 8.72727281-4.36363688 13.09090969-4.36363594 8.72727281-15.27272719 15.27272719-24 13.09090875h-342.54545437z m-2.18181844-226.90909031c-15.27272719 0-28.36363594-13.09090875-28.36363594-28.36363687 0-4.36363594 2.18181844-10.90909125 4.36363594-13.09090875 4.36363594-8.72727281 15.27272719-13.09090875 24-13.09090969l342.54545531 2.18181844c15.27272719 0 28.36363594 13.09090875 28.36363594 28.36363687 0 15.27272719-13.09090875 28.36363594-28.36363594 28.36363594l-342.54545531-4.36363594zM945.83272719 14.159999999999968l-628.36363594 4.36363594c2.18181844 80.72727281 26.18181844 161.45454563 72 229.09090969h4.36363594l349.09090875 2.18181843c15.27272719 0 28.36363594 13.09090875 28.36363687 28.36363594 0 15.27272719-13.09090875 28.36363594-28.36363687 28.36363594h-307.63636313c126.54545438 133.09090875 322.90909125 170.18181844 488.72727281 96v-8.72727188c0-50.18181844 39.27272719-91.63636406 89.45454563-91.63636406 10.90909125 0 19.63636406-4.36363594 28.36363594-10.90909125 6.54545437-6.54545437 10.90909125-17.45454563 10.90909125-28.36363594l-2.18181844-141.81818156c0-28.36363594-10.90909125-52.36363594-30.54545437-72-19.63636406-26.18181844-45.81818156-34.90909125-74.18181844-34.90909125z"  horiz-adv-x="1163" />

    
    <glyph glyph-name="kefu21" unicode="&#59098;" d="M297.53658565 381.91463408000004c-2.19512198-190.97560987 151.46341435-346.82926817 342.43902422-349.02439013 190.97560987-2.19512198 346.82926817 151.46341435 349.02439013 342.43902421 2.19512198 190.97560987-151.46341435 346.82926817-342.43902422 349.02439014h-2.19512197c-190.97560987 2.19512198-346.82926817-151.46341435-346.82926816-342.43902422zM1098.75609776 507.03658565c-6.58536592 0-10.97560987 0-17.56097578-2.19512198-72.43902422 241.46341435-324.87804844 379.75609776-566.34146368 309.51219463-149.26829238-43.90243945-265.60975605-160.24390224-309.51219463-309.51219463-6.58536592 0-10.97560987 2.19512198-17.56097578 2.19512198-70.24390224 0-125.12195156-57.07317041-125.12195156-125.12195157 0-70.24390224 57.07317041-125.12195156 125.12195156-125.12195156 6.58536592 0 10.97560987 0 17.56097578 2.19512197 17.56097578 2.19512198 32.92682959 6.58536592 46.09756055 15.36585381 6.58536592 4.39024395 10.97560987 13.17073184 8.78048789 19.75609775-48.29268252 210.73170761 83.41463408 421.46341435 294.1463417 469.75609776 210.73170761 48.29268252 421.46341435-83.41463408 469.75609775-294.1463417 13.17073184-61.46341435 13.17073184-127.31707354-2.19512197-188.78048789-17.56097578-65.8536583-52.68292646-127.31707354-100.97560987-175.60975605-6.58536592-6.58536592-13.17073184-13.17073184-19.75609774-17.56097578-6.58536592-6.58536592-15.36585381-8.78048789-24.14634171-6.58536593-30.73170761 4.39024395-59.26829238-10.97560987-74.63414619-37.31707265-15.36585381-26.34146367-10.97560987-59.26829238 6.58536592-81.21951211 19.75609776-24.1463417 50.4878045-32.92682959 79.02439013-24.1463417 37.31707354 10.97560987 59.26829238 46.09756055 52.68292735 83.41463408-2.19512198 10.97560987 2.19512198 21.95121972 8.78048701 28.53658565 61.46341435 57.07317041 107.56097578 127.31707354 129.51219551 208.53658477 46.09756055-6.58536592 92.19512197 13.17073184 120.73170761 52.68292734 26.34146367 37.31707354 30.73170761 87.80487803 8.78048789 129.51219462-19.75609776 39.5121955-63.65853633 65.8536583-109.75609774 65.85365919zM481.92682959 72.40243944999997c-28.53658565 190.97560987 100.97560987 368.78048789 291.95121885 399.51219463 17.56097578 2.19512198 35.12195156 4.39024395 52.68292734 4.39024395 54.87804844 0 107.56097578-13.17073184 158.04878028-37.31707353 2.19512198-17.56097578 4.39024395-35.12195156 4.39024394-52.68292647 0-193.17073184-155.8536583-349.02439013-349.02439013-349.02439014-57.07317041-2.19512198-109.75609776 10.97560987-158.04878028 35.12195156z"  horiz-adv-x="1323" />

    
    <glyph glyph-name="yue1" unicode="&#59100;" d="M478.76658418-66c19.54906787 0 72.33155244 62.55701807 91.88062032 64.51192529 226.76919083 35.18832305 381.2068292 248.27316592 344.0635998 473.08744951-35.18832305 226.76919083-248.27316592 381.2068292-473.08744951 344.06359893-226.76919083-35.18832305-381.2068292-248.27316592-344.06359981-473.08744951 27.36869502-177.8965207 168.12198633-316.69490391 344.06359981-344.06359893 23.45888145-1.95490723 13.68434795-64.51192529 37.14322939-64.51192529zM439.66844756 0.46683164000000943c-3.90981357 0-9.77453437 1.95490723-13.68434707 1.95490723-54.73739092 236.54372432 91.88062031 473.08744951 328.42434463 527.82484043 50.82757734 11.72944072 91.88062031 13.68434795 142.70819766 7.81962715 13.68434795-41.05304297 19.54906787-84.06099316 19.54906787-127.06894336 0-207.22012207-142.70819766-383.16173555-347.97341338-412.4853378-19.54906787-1.95490723-72.33155244-64.51192529-91.88062032-64.51192529-23.45888145 1.95490723-13.68434795 62.55701807-37.14322939 66.46683164zM641.02384971 373.85403369000005c17.59416153 0 31.27850947-13.68434795 31.27850947-31.27850947s-13.68434795-31.27850947-31.27850947-31.27850859h-93.83552666v-78.19627237c0-17.59416153-13.68434795-31.27850947-29.32360225-31.27850948s-31.27850947 13.68434795-31.27850947 29.32360226v80.15117958h-93.83552754c-17.59416153 0-31.27850947 13.68434795-31.27850859 31.2785086s13.68434795 31.27850947 31.27850859 31.27850947h93.83552754v44.96285654h-93.83552754c-17.59416153 0-31.27850947 13.68434795-31.27850859 29.32360225 0 17.59416153 13.68434795 31.27850947 29.32360224 31.27850947h70.37664522l-82.10608594 95.79043389c-11.72944072 11.72944072-9.77453437 31.27850947 1.95490635 43.0079502s31.27850947 9.77453437 43.00795019-1.95490723l91.88062031-107.51987461 91.88062031 107.51987461c11.72944072 13.68434795 29.32360224 13.68434795 43.0079502 3.90981357s13.68434795-29.32360224 3.90981358-43.00795019l-82.10608594-95.79043389h68.42173799c17.59416153 0 29.32360224-13.68434795 29.32360224-31.27850859 0-15.6392543-13.68434795-29.32360224-29.32360224-29.32360225h-93.83552666v-44.96285743h93.83552666z"  horiz-adv-x="1024" />

    
    <glyph glyph-name="huiyuanzhongxin" unicode="&#59093;" d="M62 573.5571430699999L608.42857168-66 354.02857138 573.5571430699999zM608.42857168-66L1154.85714248 573.5571430699999H862.50714278L608.42857168-66zM352.87142891 573.5571430699999L608.40714307 834 351.62857109 573.5571430699999z m512.01428554 0L608.42857168 834l254.9999997-260.44285693zM863.36428555 576.85714248l-254.99999971 257.14285752-255.53571416-257.14285752h-1.2214292l256.77857197-642.85714248 256.45714278 642.85714248zM863.36428555 576.85714248l-254.99999971 257.14285752-255.53571416-257.14285752h-1.2214292l256.77857197-642.85714248 256.45714278 642.85714248zM608.42857168 834l254.07857109-260.44285693H1154.85714248L898.63571445 834H608.42857168z m0 0H317.89999971L62 573.5571430699999h292.02857138L608.42857168 834z"  horiz-adv-x="1243" />

    
    <glyph glyph-name="kanjiajilu" unicode="&#59094;" d="M980.46966992 220.57984922000003l-252.49023896-261.40367549a79.12817842 79.12817842 0 0 0-57.8516335-25.17617373 80.82087451 80.82087451 0 0 0-58.53728233 25.1333209l-208.80154247 216.30082852 39.06056513 40.38900996 1.32844483-0.98562042 290.17950732 302.30692383-0.59994317 0.47138291 39.724788 40.38901084 208.7801165-216.23654883a86.49890508 86.49890508 0 0 0 23.56918418-60.57280283 84.63479677 84.63479677 0 0 0-24.27625987-60.61565566zM251.26054648 263.58289688l-16.17703065-16.77697383-148.82868283 154.27102236a83.6920292 83.6920292 0 0 0-24.14770048 60.59422881V751.2935912099999a56.37320244 56.37320244 0 0 0 55.13046416 57.16598379h279.46624131a82.42786406 82.42786406 0 0 0 58.53728232-25.11189404l148.95724219-154.39958086-39.08199287-40.38901085L251.26054648 263.58289688z m3.34253936 401.98314463a57.25169033 57.25169033 0 1 1 55.2375958-57.16598468 56.41605528 56.41605528 0 0 1-55.2375958 57.25169034zM142.67088828 67.18731562000005L888.82839688 834 197.90848496 9.785639059999994l-55.15189014 57.40167656zM611.52623545-40.780973440000025l-138.8010665 143.79344824a321.39796201 321.39796201 0 0 0 462.06313681 70.25759473l-206.8088748-214.00819013a79.27816377 79.27816377 0 0 0-57.85163349-25.17617286 80.86372734 80.86372734 0 0 0-58.60156202 25.13332002z"  horiz-adv-x="1072" />

    
    <glyph glyph-name="dizhixinxi" unicode="&#59095;" d="M512.01688379 833.99652305a366.62585625 366.62585625 0 0 0 368.18039619-364.25313808 351.32591513 351.32591513 0 0 0-97.26098818-243.40815089L572.52119609-36.791022070000054a77.72697246 77.72697246 0 0 0-121.00862372-0.47045303L236.84294727 228.27840877999995A359.40542959 359.40542959 0 0 0 143.83648848 469.74338496 366.62585625 366.62585625 0 0 0 512.01688379 833.99652305z m187.40382188-351.65318731a186.64700625 186.64700625 0 0 1-318.04649825 129.43586338 182.04475078 182.04475078 0 0 1-54.49069864-130.39722334 185.82882715 185.82882715 0 0 1 186.48337062-183.61974463 185.52201065 185.52201065 0 0 1 186.13564365 184.51974112zM511.64870381 479.29562021m-118.49272383 0a118.49272383 118.49272383 0 1 1 236.98544765 0 118.49272383 118.49272383 0 1 1-236.98544765 0ZM655.46405703 354.70746533a186.95382276 186.95382276 0 0 1 45.61346075 122.99270713 185.62428281 185.62428281 0 0 1-184.8061046 186.03337149 181.7174795 181.7174795 0 0 1-130.25404248-54.83842384 186.4833706 186.4833706 0 0 1-18.7772001-22.19309648 439.60739239 439.60739239 0 0 0-45.98163984 190.55380957A359.54861045 359.54861045 0 0 0 515.43278018 833.99652305 367.28039883 367.28039883 0 0 0 880.1768252 464.99794864a360.20315391 360.20315391 0 0 0-17.44765928-112.09047627 445.27327998 445.27327998 0 0 0-207.2446541 1.79999296z"  horiz-adv-x="1024" />

    
    <glyph glyph-name="wodetuiguang" unicode="&#59096;" d="M794.19090869 518.30454521a147.62045479 147.62045479 0 1 1-147.68181738 147.64090958 150.93409131 150.93409131 0 0 1 1.71818174-21.15l-310.35681826-119.39318174a147.68181826 147.68181826 0 1 1-22.23409131-221.44090958l210.33409131-140.175a147.51818174 147.51818174 0 1 1 30.86590869 43.91590958L353.66136348 343.09090869a147.04772695 147.04772695 0 0 1 13.725 136.08409131l298.06363652 114.54545479a147.68181826 147.68181826 0 0 1 128.72045479-75.53863653z m0 0M798.36363652 670.36363652m-163.63636347 1e-8a163.63636347 163.63636347 0 1 1 327.27272695 0 163.63636347 163.63636347 0 1 1-327.27272695 0ZM225.63636348 424.90909131m-163.63636348 0a163.63636347 163.63636347 0 1 1 327.27272695 0 163.63636347 163.63636347 0 1 1-327.27272695 0ZM675.63636347 97.63636348m-163.63636347-1e-8a163.63636347 163.63636347 0 1 1 327.27272695 0 163.63636347 163.63636347 0 1 1-327.27272695 0Z"  horiz-adv-x="1024" />

    
    <glyph glyph-name="wodeshoucang" unicode="&#59097;" d="M180.868822-80.023059a77.672195 77.672195 0 0 0-5.319671 33.816126l18.581387 266.433112a18.581387 18.581387 0 0 1-4.370622 13.58639l-75.174697 89.735112 1.673324-0.14985-56.99291 61.263631 44.480444 62.162731 401.248066 13.161816s271.053483-303.37111 288.535971-329.669767-9.415568-247.7768-9.415569-247.776799l-99.025805 38.536397 0.574425-1.248749-143.131624 57.642259a19.780186 19.780186 0 0 1-7.192795 1.348649 18.781187 18.781187 0 0 1-7.192795-1.348649l-247.901674-99.899929a76.523346 76.523346 0 0 0-99.35048 42.45747zM1016.032231 560.934888l-260.114441 64.934954a19.555411 19.555411 0 0 0-11.613366 8.366619l-142.3574 226.048565a76.723146 76.723146 0 0 1-129.720058 0l-142.532224-226.17344a19.555411 19.555411 0 0 0-11.613367-8.366619l-260.089466-64.934954a76.348521 76.348521 0 0 1-40.209722-123.001788l44.954969-53.446462 56.917984-4.994997A757.740964 757.740964 0 0 0 739.509227-56.646475l25.249707-54.645262 28.046905-11.163817a77.422445 77.422445 0 0 1 33.941001-5.319671 76.423446 76.423446 0 0 1 71.203675 81.243617l-18.431537 266.208337a18.731237 18.731237 0 0 0 4.395597 13.561416l172.052653 204.645005a77.022846 77.022846 0 0 1 15.634339 30.444503 76.248621 76.248621 0 0 1-55.569336 92.68216z"  horiz-adv-x="1073" />

    
    <glyph glyph-name="huidaodingbu1" unicode="&#59092;" d="M291.328 430.592c-0.512 164.352 73.728 320 201.216 423.424 9.216 8.704 24.064 8.704 32.768-1.024l1.536-1.536V849.92l9.216-8.704c30.208-28.16 57.344-59.392 81.408-93.184 40.448-56.32 70.144-119.296 87.552-186.368 12.288-48.128 17.92-97.28 16.896-146.944l3.072-3.584c68.608-93.696 86.016-182.272 50.176-262.144-5.12-11.776-18.944-16.896-30.72-11.776-1.536 0.512-2.56 1.536-3.584 2.56l-66.048 48.128c-9.728-24.576-20.48-48.64-32.256-72.192-1.536-3.584-4.096-6.144-7.168-8.704v-37.888c0-12.288-9.728-22.528-22.528-23.04H593.408c0-32.768-13.312-64.512-37.376-87.04-10.24-9.728-21.504-17.92-34.304-24.576-4.096-2.56-8.192-4.096-12.288-6.144l-5.632-1.536H501.76c-3.584-1.024-7.68-1.024-11.264 0h-2.048c-49.664 17.92-80.896 67.072-75.264 119.808h-3.072c-12.8 0-23.04 10.24-23.552 22.528v34.304h-5.632c-9.216 0.512-16.896 5.632-20.48 13.824-10.752 26.112-20.992 51.2-29.184 76.8l-65.024-46.08c-10.752-7.168-25.088-4.608-32.256 6.144l-2.048 3.584c-36.864 80.384-20.48 168.448 47.104 261.632 3.072 4.096 7.68 7.168 12.8 8.704l-0.512 2.56z m426.496-89.6c-6.144-36.352-15.36-72.192-27.136-107.008l50.176-36.864v1.536c10.24 48.64 2.048 99.328-23.04 142.336z m-219.136-365.568c8.192 4.608 15.872 10.24 22.528 16.896 14.848 13.824 23.552 33.792 24.064 54.272h-87.04c-3.584-30.208 12.8-58.88 40.448-71.168z m-64 128.512v-9.728H588.8v9.728H434.688z m71.68 699.392C326.144 635.392 290.304 420.352 397.312 154.112v-3.072l114.688-2.56h96.768c64.512 122.368 83.456 263.68 53.248 398.848v3.584c-15.872 61.44-43.008 119.808-80.384 171.52-20.992 29.696-45.056 57.344-72.192 82.432l-3.072-1.536zM434.176 550.4c38.4 38.4 100.352 38.4 138.752 0s38.4-100.352 0-138.752-100.352-38.4-138.24 0c-37.376 37.888-37.376 99.328 0 137.216v1.536z m34.304-34.304c-20.48-19.968-20.48-52.736 0-73.216 19.968-20.48 52.736-20.48 73.216 0 20.48 19.968 20.48 52.736 0 73.216-20.48 19.968-52.736 19.968-73.216 0zM296.96 358.912c-30.72-45.056-41.984-100.352-31.744-154.112v-1.536l49.664 36.352 4.608 2.56c-11.264 38.912-19.456 78.336-24.576 118.272l2.048-1.536z"  horiz-adv-x="1024" />

    
    <glyph glyph-name="saoyisao" unicode="&#59091;" d="M129.69724766 454.50688067a18.17552549 18.17552549 0 0 1 17.82430752 17.56089404V757.62986631A41.86078154 41.86078154 0 0 0 189.09697168 798.74430967h755.53552353a41.86078154 41.86078154 0 0 0 41.57541739-41.11444336v-285.51818936a17.82430752 17.82430752 0 0 1 35.64861503 0V757.62986631A76.65330323 76.65330323 0 0 1 944.63249521 833.99780449H189.09697168a76.65330323 76.65330323 0 0 1-77.22403242-76.36793818v-285.51818936a18.17552549 18.17552549 0 0 1 17.8243084-17.60479629z m874.33497245-140.9920295a18.17552549 18.17552549 0 0 1-17.82430751-17.56089404v-285.51818935a41.86078154 41.86078154 0 0 0-41.57541739-41.11444336H189.09697168a41.86078154 41.86078154 0 0 0-41.5754165 41.11444336V295.88810332a17.82430752 17.82430752 0 0 1-35.64861593 0v-285.51818936A76.65330323 76.65330323 0 0 1 189.09697168-65.99802422000005h755.53552353a76.65330323 76.65330323 0 0 1 77.22403242 76.36793818V295.88810332a18.17552549 18.17552549 0 0 1-17.82430752 17.62674785z m49.89489083 88.11178682H79.80235684a17.62674786 17.62674786 0 1 1-1e-8-35.2534957h974.10280255a17.62674786 17.62674786 0 1 1 0 35.2534957zM933.70083857 590.36234825a18.15357481 18.15357481 0 0 1 17.80235684 17.56089491V694.67406036a76.54354805 76.54354805 0 0 1-77.15817949 76.23623232h-58.17046201a18.15357481 18.15357481 0 0 1-17.80235684-17.56089492 17.36333438 17.36333438 0 0 1 17.80235684-17.56089404h58.17046201A41.70712412 41.70712412 0 0 0 915.89848174 694.76186484v-86.75081718a18.15357481 18.15357481 0 0 1 17.80235683-17.64869942zM258.19909122 770.91029268a76.54354805 76.54354805 0 0 1-77.1581795-76.21428164v-86.75081719a17.80235683 17.80235683 0 0 1 35.62666435 0V694.69601104a41.70712412 41.70712412 0 0 0 41.55346583 41.02663974h67.67529609a18.15357481 18.15357481 0 0 1 17.80235683 17.56089404 18.4169874 18.4169874 0 0 1-18.98771748 17.56089405z m-59.26801817-595.59967882a18.15357481 18.15357481 0 0 1-17.80235684-17.56089492v-83.23863837a76.54354805 76.54354805 0 0 1 77.15817861-76.21428077h71.23137803a17.56089404 17.56089404 0 1 1 0 35.12178809H258.28689482a41.70712412 41.70712412 0 0 0-41.55346581 41.02663974V157.68386601999998a18.15357481 18.15357481 0 0 1-17.89016045 17.62674784z m675.52369892-177.03576562a76.54354805 76.54354805 0 0 1 77.15817862 76.21428077v78.56305136a17.80235683 17.80235683 0 0 1-35.6047128 0V74.48912901000006a41.70712412 41.70712412 0 0 0-41.55346582-41.02663888h-58.17046289a17.56089404 17.56089404 0 1 1 0-35.12178808z"  horiz-adv-x="1149" />

    
    <glyph glyph-name="jiageshaixuanshang" unicode="&#59088;" d="M512 805.875l301.33928595-361.60714297H210.66071405zM512-37.875L210.66071405 323.73214298000005h602.6785719z"  horiz-adv-x="1024" />

    
    <glyph glyph-name="jiageshaixuanxia" unicode="&#59089;" d="M512 805.875l301.33928595-361.60714297H210.66071405zM512-37.875L210.66071405 323.73214298000005h602.6785719z"  horiz-adv-x="1024" />

    
    <glyph glyph-name="shouji1" unicode="&#59087;" d="M294.57241208 780.23233667h399.86413q79.97282584 0 79.97282584-86.09918418v-624.08152166q0-86.0625-79.97282583-86.099185h-399.86413001q-79.97282584 0-79.97282665 86.099185V694.16983667Q214.59958542 780.23233667 294.53572708 780.23233667zM269.88355292 760.27581501a45.08559751 45.08559751 0 0 1-44.53532584-45.59918418v-661.31657665a45.08559751 45.08559751 0 0 1 44.53532583-45.59918501h445.46331501a45.08559751 45.08559751 0 0 1 44.53532666 45.59918501V714.67663083a45.08559751 45.08559751 0 0 1-44.53532666 45.59918417z m-1e-8 45.59918499h445.46331501a90.17119582 90.17119582 0 0 0 89.10733749-91.19836917v-661.31657665a90.17119582 90.17119582 0 0 0-89.10733749-91.19836918H269.88355292a90.17119582 90.17119582 0 0 0-89.10733668 91.19836918V714.67663083A90.17119582 90.17119582 0 0 0 269.88355292 805.875zM388.41208543 713.4293475100001h208.00271748a30.63179333 30.63179333 0 0 0 34.66712001-34.66711917 30.63179333 30.63179333 0 0 0-34.66712-34.66712h-208.0027175a30.63179333 30.63179333 0 0 0-34.66711918 34.66712 30.63179333 30.63179333 0 0 0 34.66711918 34.66711917zM492.41344458 158.57201083999996a51.0652175 51.0652175 0 0 0 57.7785325-57.77853251 51.0652175 51.0652175 0 0 0-57.7785325-57.7785325 51.0652175 51.0652175 0 0 0-57.7785325 57.7785325 51.0652175 51.0652175 0 0 0 57.7785325 57.7785325z"  horiz-adv-x="1024" />

    
    <glyph glyph-name="gengduo2" unicode="&#59085;" d="M152 384m-90 0a90 90 0 1 1 180 0 90 90 0 1 1-180 0ZM512 384m-90 0a90 90 0 1 1 180 0 90 90 0 1 1-180 0ZM872 384m-90 0a90 90 0 1 1 180 0 90 90 0 1 1-180 0Z"  horiz-adv-x="1024" />

    
    <glyph glyph-name="cha1" unicode="&#59083;" d="M921.5-54.72077901c-8.76623378 0-14.61038994 2.92207763-20.45454521 8.7662338l-818.18181826 818.18181826c-11.68831143 11.68831143-11.68831143 29.22077901 0 40.90909043s29.22077901 11.68831143 40.90909042 0l818.18181826-818.18181827c11.68831143-11.68831143 11.68831143-29.22077901 0-40.90909042-5.84415615-5.84415615-11.68831143-8.76623378-20.45454521-8.7662338zM103.31818174-54.72077901c-8.76623378 0-14.61038994 2.92207763-20.45454521 8.7662338-11.68831143 11.68831143-11.68831143 29.22077901 0 40.90909042l818.18181826 818.18181826c11.68831143 11.68831143 29.22077901 11.68831143 40.90909042 0s11.68831143-29.22077901 0-40.90909042l-818.18181826-818.18181826c-5.84415615-5.84415615-11.68831143-8.76623378-20.45454521-8.7662338z"  horiz-adv-x="1024" />

    
    <glyph glyph-name="fasong" unicode="&#59070;" d="M512 834C262.62500029 834 62 633.37499971 62 384s200.62500029-450 450-450 450 200.62500029 450 450S761.37499971 834 512 834z m202.5-391.87500029c-1.87499971-1.87499971-1.87499971-3.75000029-3.75000029-3.74999942-7.49999971-9.37500029-18.74999971-9.37500029-28.125-3.75000029l-3.74999942 3.75000029-140.625 136.87499971v-414.37500029c0-13.12499971-7.49999971-20.62500029-20.62500029-20.62499942-15.00000029 0-20.62500029 7.49999971-20.62500029 20.62499942v412.50000058L361.99999971 438.37500029c-5.625-7.49999971-16.875-9.37500029-26.24999942-3.75000029l-3.75000029 3.75000029c-7.49999971 5.625-9.37500029 18.74999971-3.75000029 26.24999942l3.75000029 3.75000029 170.62499971 170.62499971c3.75000029 3.75000029 9.37500029 7.49999971 15.00000029 7.50000058 5.625 0 11.25-3.75000029 16.875-7.50000058l176.24999971-170.62499971c7.49999971-5.625 9.37500029-18.74999971 3.75000029-26.25000029z"  horiz-adv-x="1024" />

    
    <glyph glyph-name="gengduozhankai" unicode="&#59079;" d="M512-66C264.5-66 62 136.5 62 384S264.5 834 512 834s450-202.5 450-450-202.5-450-450-450z m0 881.25000029C273.87500029 815.25000029 80.74999971 622.12499971 80.74999971 384s193.12499971-431.25000029 431.25000029-431.25000029 431.25000029 193.12499971 431.25000029 431.25000029S750.12499971 815.25000029 512 815.25000029zM328.24999971 402.74999971h367.50000058c13.12499971 0 22.5-9.37500029 22.5-22.5s-9.37500029-22.5-22.5-22.5H328.24999971c-13.12499971 0-22.5 9.37500029-22.5 22.5s9.37500029 22.5 22.5 22.5zM493.25000029 200.24999971V567.75000029c0 13.12499971 9.37500029 22.5 22.5 22.5s22.5-9.37500029 22.5-22.5v-367.50000058c0-13.12499971-9.37500029-22.5-22.5-22.5s-22.5 9.37500029-22.5 22.5z"  horiz-adv-x="1024" />

    
    <glyph glyph-name="biaoqing" unicode="&#59080;" d="M512-66C264.5-66 62 136.5 62 384S264.5 834 512 834s450-202.5 450-450-202.5-450-450-450z m0 881.25000029C273.87500029 815.25000029 80.74999971 622.12499971 80.74999971 384s193.12499971-431.25000029 431.25000029-431.25000029 431.25000029 193.12499971 431.25000029 431.25000029S750.12499971 815.25000029 512 815.25000029zM361.99999971 564c13.12499971 0 22.5-9.37500029 22.5-22.5v-67.5c0-13.12499971-9.37500029-22.5-22.5-22.5s-22.5 9.37500029-22.5 22.5v67.5c0 13.12499971 9.37500029 22.5 22.5 22.5zM680.75 564c13.12499971 0 22.5-9.37500029 22.5-22.5v-67.5c0-13.12499971-9.37500029-22.5-22.5-22.5s-22.5 9.37500029-22.5 22.5v67.5c0 13.12499971 9.37500029 22.5 22.5 22.5zM513.87499971 151.50000029C414.50000029 151.50000029 324.50000029 215.25 290.75000029 309.00000029c-3.75000029 11.25 1.87499971 24.37499971 13.12499971 28.125 11.25 3.75000029 24.37499971-1.87499971 28.125-13.12500058 28.125-76.87500029 101.25-127.50000029 181.87499971-127.49999942 80.62499971 0 153.74999971 52.49999971 181.87500058 127.49999942 3.75000029 11.25 16.875 16.875 28.125 13.12500058 11.25-3.75000029 16.875-16.875 13.12499971-28.125-33.75-93.75000029-123.75-157.5-223.12500029-157.5z"  horiz-adv-x="1024" />

    
    <glyph glyph-name="huashu" unicode="&#59081;" d="M512-66C264.5-66 62 136.5 62 384S264.5 834 512 834s450-202.5 450-450-202.5-450-450-450z m0 881.25000029C273.87500029 815.25000029 80.74999971 622.12499971 80.74999971 384s193.12499971-431.25000029 431.25000029-431.25000029 431.25000029 193.12499971 431.25000029 431.25000029S750.12499971 815.25000029 512 815.25000029zM570.12499971 177.74999971H350.74999971C305.74999971 177.74999971 268.25000029 215.25 268.25000029 260.25V402.74999971c0 103.12499971 82.50000029 187.49999971 185.625 187.50000058H568.25c103.12499971 0 185.625-84.375 185.625-187.50000058v-37.49999942c1.87499971-103.12499971-80.62499971-187.49999971-183.75000029-187.50000058z m-116.24999942 375.00000029c-82.50000029 0-150.00000029-67.5-150.00000029-150.00000029v-142.49999971c0-24.37499971 20.62500029-45 45-45h217.50000029c82.50000029 0 150.00000029 67.5 149.99999942 150.00000029v37.49999942c0 82.50000029-65.62500029 150.00000029-148.12499971 150.00000029h-114.37499971zM457.62499971 325.87500029c-9.37500029 0-18.74999971 7.49999971-18.74999971 18.74999971V421.50000029c0 9.37500029 7.49999971 18.74999971 18.74999971 18.74999971s18.74999971-7.49999971 18.75000058-18.74999971v-76.87500029c0-9.37500029-7.49999971-18.74999971-18.75000058-18.74999971z m101.25-30.00000058c-9.37500029 0-18.74999971 7.49999971-18.74999971 18.75000058v108.74999971c0 9.37500029 7.49999971 18.74999971 18.74999971 18.74999971s18.74999971-7.49999971 18.75000058-18.74999971v-108.74999971c0-11.25-9.37500029-18.74999971-18.75000058-18.75000058z"  horiz-adv-x="1024" />

    
    <glyph glyph-name="tupian" unicode="&#59082;" d="M512-66C264.5-66 62 136.5 62 384S264.5 834 512 834s450-202.5 450-450-202.5-450-450-450z m0 881.25000029C273.87500029 815.25000029 80.74999971 622.12499971 80.74999971 384s193.12499971-431.25000029 431.25000029-431.25000029 431.25000029 193.12499971 431.25000029 431.25000029S750.12499971 815.25000029 512 815.25000029zM323.91874971 203.81250029c-5.625 0-11.25 1.87499971-13.12499971 5.625-7.49999971 7.49999971-7.49999971 20.62500029 0 28.125l121.87500029 121.87499942c7.49999971 7.49999971 20.62500029 7.49999971 28.125 0l119.99999971-119.99999971c7.49999971-7.49999971 7.49999971-20.62500029 0-28.125-7.49999971-7.49999971-20.62500029-7.49999971-28.125 0l-105.00000029 105.00000029-108.74999971-108.75000058c-5.625-3.75000029-11.25-3.75000029-15.00000029-3.74999942zM758.91875029 211.3125c-5.625 0-11.25 1.87499971-15.00000029 5.625l-136.87499971 136.87499971-76.87500029-76.87499942c-7.49999971-7.49999971-20.62500029-7.49999971-28.125 0-7.49999971 7.49999971-7.49999971 20.62500029 0 28.125l91.87499971 91.87499971c7.49999971 7.49999971 20.62500029 7.49999971 28.125 0l150.00000029-150.00000029c7.49999971-7.49999971 7.49999971-20.62500029 0-28.125-3.75000029-5.625-7.49999971-7.49999971-13.12499971-7.49999971z m-331.875 228.75000029c-35.62499971 0-65.62500029 29.99999971-65.62500029 65.62499942s29.99999971 65.62500029 65.62500029 65.62500029 65.62500029-29.99999971 65.62499942-65.62500029c1.87499971-37.50000029-28.125-65.62500029-65.62499942-65.62499942z m0 91.87499971c-15.00000029 0-26.25000029-11.25-26.25000029-26.25000029 0-15.00000029 11.25-26.25000029 26.25000029-26.24999942 15.00000029 0 26.25000029 11.25 26.24999942 26.24999942 0 15.00000029-11.25 26.25000029-26.24999942 26.25000029z"  horiz-adv-x="1024" />

    
    <glyph glyph-name="mima" unicode="&#59066;" d="M633.93548398 587.22580606h-246.77419394c-14.51612901 0-29.032258 0-40.64516103-2.9032251V709.16129004c0 23.22580606 17.41935498 40.64516104 40.64516102 40.64516191h246.77419395c23.22580606 0 40.64516104-17.41935498 40.64516104-40.64516192v-34.83870907c0-23.22580606 17.41935498-40.64516104 40.64516104-40.64516192 23.22580606 0 40.64516104 17.41935498 40.64516191 40.64516192V709.16129004C758.77419395 778.83870997 703.61290303 834 636.83870997 834h-246.77419395C320.38709697 834 265.22580605 778.83870997 268.12903203 709.16129004v-148.06451602C146.19354805 514.64516104 62 395.61290302 62 259.16129003000003 62 79.16129004000004 210.06451602-66 390.06451602-66h246.77419394C813.93548398-66 962 79.16129004000004 962 259.16129003000003S813.93548398 587.22580606 633.93548398 587.22580606z m0-571.93548311h-246.77419394c-133.54838701 0-243.87096797 110.32258096-243.87096709 243.87096709s110.32258096 243.87096797 243.87096708 243.87096797h246.77419395c133.54838701 0 243.87096797-110.32258096 243.87096797-243.87096797s-107.41935498-243.87096797-243.87096797-243.87096709zM512 398.51612901c-23.22580606 0-40.64516104-17.41935498-40.64516104-40.64516104v-206.12903291c0-23.22580606 17.41935498-40.64516104 40.64516104-40.64516103 23.22580606 0 40.64516104 17.41935498 40.64516104 40.64516103v206.12903291c0 23.22580606-17.41935498 40.64516104-40.64516104 40.64516104z"  horiz-adv-x="1024" />

    
    <glyph glyph-name="zhanghao" unicode="&#59068;" d="M512.96438076 330.16311797000003h5.61933457c103.95769746 0 196.6767249 61.81268467 236.01207041 157.34138028 2.80966729 11.23867002 2.80966729 19.66767276 1e-8 30.90634277-2.80966729 11.23867002-11.23867002 16.85800459-22.47734005 22.47734004-19.66767276 8.42900273-44.95468008-2.80966729-53.38368193-22.47734004-28.09667461-64.62235283-89.90936016-106.76736474-162.96071572-106.76736563h-5.61933458c-92.71902744 0-171.38971758 75.86102286-174.19938574 168.58005029 0 33.71601006 11.23867002 67.43202012 30.90634278 92.71902744 14.0483373 19.66767276 28.09667461 33.71601006 44.95468008 44.95468008 39.33534463 28.09667461 87.09969287 39.33534463 134.86404024 30.90634278 47.76434737-8.42900273 89.90936016-33.71601006 118.00603476-73.05135469 5.61933457-8.42900273 11.23867002-19.66767276 16.85800547-30.90634277 2.80966729-8.42900273 11.23867002-16.85800459 22.47734003-22.47734004 11.23867002-2.80966729 19.66767276-2.80966729 30.9063419 0 19.66767276 8.42900273 30.90634278 33.71601006 22.47734003 53.38368281-8.42900273 16.85800459-16.85800459 33.71601006-28.0966746 47.76434736-16.85800459 25.28700732-36.52567734 44.95468008-61.81268467 61.81268467-118.00603477 84.29002471-280.96675049 56.1933501-365.25677607-61.81268467-28.09667461-42.14501279-44.95468008-89.90936016-44.95468008-140.4833748 5.61933457-140.48337481 118.00603477-252.870075 255.67974316-252.87007588zM768.64412305 296.44710791H254.47497031C156.13660742 296.44710791 74.65625 214.96675048999998 74.65625 116.6283876c0-98.33836289 81.48035742-179.81872031 179.81872031-179.81872031h514.16915274c98.33836289 0 179.81872031 81.48035742 179.81872031 179.81872031 0 98.33836289-81.48035742 179.81872031-179.81872031 179.81872031z m95.5286956-179.81872031c0-25.28700732-8.42900273-50.57401465-28.09667548-70.24168741s-42.14501279-30.90634278-70.24168741-30.90634277H254.47497031c-53.38368281 0-98.33836289 44.95468008-98.33836289 98.33836289 0 56.1933501 42.14501279 101.14803018 98.33836289 101.14803018h514.16915274c53.38368281-2.80966729 95.52869472-44.95468008 95.5286956-98.33836289z"  horiz-adv-x="1024" />

    
    <glyph glyph-name="fanhui" unicode="&#59065;" d="M283.95909094 384.0136442L700.30805908 805.875l39.65098316-80.36623911L402.85746198 384.0136442 739.95904224 42.49123911000004l-39.65098316-80.36623911z"  horiz-adv-x="1024" />

    
    <glyph glyph-name="jinru2" unicode="&#59069;" d="M313.23607721 725.88965634L621.160794 383.96667682l-307.92471679-341.92298034a50.82866922 50.82866922 0 0 1 0-66.22490507 39.27094712 39.27094712 0 0 1 59.56023257 0l337.45174476 375.03543247a50.82866922 50.82866922 0 0 1 0 66.22490506l-337.45174476 375.03543246a39.27094712 39.27094712 0 0 1-59.56023257 0 50.61776138 50.61776138 0 0 1 0-66.22490506z"  horiz-adv-x="1024" />

    
    <glyph glyph-name="shangpinxinxi" unicode="&#59071;" d="M871.83081522-37.83134746999997H262.16630808A170.50063953 170.50063953 0 0 0 90.125 130.68843237a28.09885748 28.09885748 0 0 0 0.22009515 3.41147983L151.86178457 639.14569638A170.53732205 170.53732205 0 0 0 323.90309265 805.86803h486.19093716a170.53732205 170.53732205 0 0 0 172.00462556-166.72233361l61.55337194-504.97241914A28.09885748 28.09885748 0 0 0 1043.87212329 130.90852752a170.50063953 170.50063953 0 0 0-172.04130807-168.739875zM148.59703484 129.11108130000002a112.57884338 112.57884338 0 0 1 113.5325907-109.60755386H871.83081522a112.57884338 112.57884338 0 0 1 113.34917724 109.57087133L923.8833982 633.93677032a28.06217496 28.06217496 0 0 0-0.22009515 3.41147983 112.54216086 112.54216086 0 0 1-113.71600333 111.22158747H323.90309265a112.54216086 112.54216086 0 0 1-113.53258987-111.22158747 28.09885748 28.09885748 0 0 0-0.22009599-3.41147982zM566.99856164 345.17148769999994a183.41290833 183.41290833 0 0 0-183.11944812 183.15612982 29.346065 29.346065 0 1 0 58.69213084 0 124.39063477 124.39063477 0 0 1 248.74458618 0 29.346065 29.346065 0 1 0 58.69213083 0A183.41290833 183.41290833 0 0 0 566.99856164 345.17148769999994z"  horiz-adv-x="1157" />

    
    <glyph glyph-name="tuichu" unicode="&#59072;" d="M887.11742865 654.33995462l-4.0955419 4.09554189a456.77577366 456.77577366 0 0 1-180.20383786 139.24841968 45.05095926 45.05095926 0 0 1-32.76433438 0 69.62420984 69.62420984 0 0 1-24.57325058-24.57325057 38.12949427 38.12949427 0 0 1 24.57325058-49.14650116 357.66366229 357.66366229 0 0 0 151.53504538-118.770711 347.22003131 347.22003131 0 0 0 40.95541818-344.02550893 301.59569614 301.59569614 0 0 0-77.81529364-110.57962721 307.16563267 307.16563267 0 0 0-114.67516992-73.71975255 364.50321762 364.50321762 0 0 0-278.49684018 0 422.33226718 422.33226718 0 0 0-114.67516992 73.71975255 415.61557883 415.61557883 0 0 0-77.81529365 110.57962721 346.03232382 346.03232382 0 0 0 40.95541819 344.02550893A334.60576282 334.60576282 0 0 0 391.55687432 723.96416446a41.77452639 41.77452639 0 0 1 24.57325059 49.14650116 45.62433517 45.62433517 0 0 1-57.33758497 24.57325057 459.11023215 459.11023215 0 0 1-184.29937975-143.34396157 430.64621713 430.64621713 0 0 1-49.14650116-425.93634448 399.56105483 399.56105483 0 0 1 94.19746124-139.24841968 464.43443637 464.43443637 0 0 1 139.24841968-94.19746042 427.77933756 427.77933756 0 0 1 172.01275405-32.76433438 511.9427211 511.9427211 0 0 1 172.01275488 32.76433438 399.56105483 399.56105483 0 0 1 139.24841968 94.19746042 399.56105483 399.56105483 0 0 1 94.19746125 139.24841968 420.93978306 420.93978306 0 0 1-49.14650117 425.93634448zM526.70975293 482.32720057a45.46051337 45.46051337 0 0 1 45.05095926 45.05095925V760.82404074a45.05095926 45.05095926 0 0 1-90.10191935 0v-237.54142282a48.12261548 48.12261548 0 0 1 45.05096009-40.95541735z"  horiz-adv-x="1071" />

    
    <glyph glyph-name="jiaoyidingdan" unicode="&#59073;" d="M796.56262567-37.853401979999944H227.37838351A101.44479007 101.44479007 0 0 0 123.875 61.43155288000003V657.10753125a101.44479007 101.44479007 0 0 0 103.50338351 99.28495403H356.73230267v-49.64247701H227.37838351a50.62115286 50.62115286 0 0 1-51.73481798-49.64247702v-595.67597837a50.62115286 50.62115286 0 0 1 51.73481798-49.64247702h569.21798968a50.62115286 50.62115286 0 0 1 51.734818 49.64247702V657.10753125a50.62115286 50.62115286 0 0 1-51.734818 49.64247702H667.20870652V756.39248528h129.35391915A101.44479007 101.44479007 0 0 0 900.06600918 657.10753125v-595.67597837A101.44479007 101.44479007 0 0 0 796.56262567-37.853401979999944zM646.38653937 657.51250076H377.55447064a51.73481799 51.73481799 0 0 0-53.65842215 49.43999268V756.39248528A51.73481799 51.73481799 0 0 0 377.55447064 805.83247797h268.83206874a51.73481799 51.73481799 0 0 0 53.75966389-49.43999269V706.95249344a51.73481799 51.73481799 0 0 0-53.7596639-49.43999268z m0 98.87998453H377.55447064V706.95249344h268.83206874z m-139.5118971-222.46309203h193.271561a24.80436474 24.80436474 0 1 0 0-49.43999268h-193.271561a24.80436474 24.80436474 0 1 0 0 49.43999268z m-182.97859378-148.28623051H700.28119339a24.80436474 24.80436474 0 1 0 0-49.43999268H323.89604849a24.80436474 24.80436474 0 1 0 0 49.43999268z m0-148.31997803H700.28119339a24.80436474 24.80436474 0 1 0 0-49.43999268H323.89604849a24.80436474 24.80436474 0 1 0 0 49.43999268z"  horiz-adv-x="1024" />

    
    <glyph glyph-name="sousuo4" unicode="&#59076;" d="M920.2776441-24.277644099999975a46.7307691 46.7307691 0 0 0-65.87740365 0l-197.69711545 197.66466321a46.60096179 46.60096179 0 0 0 65.87740366 65.87740364l197.66466402-197.6646632a46.7307691 46.7307691 0 0 0 0.03245142-65.87740365zM450.01682724 86.38341320999996a358.78846179 358.78846179 0 1 0 140.0625 28.29807724 357.52283679 357.52283679 0 0 0-140.0625-28.29807724z m0 625.67307724a265.91105731 265.91105731 0 1 1 188.02644187-77.88461545 264.15865366 264.15865366 0 0 1-188.02644187 77.88461545z"  horiz-adv-x="1024" />

    
    <glyph glyph-name="xuanzhong5" unicode="&#59078;" d="M714.25558755 13.211425780000013c-13.56543541 0-22.60905926 4.52181157-31.65268312 13.56543541L253.03077555 438.26174238c-18.0872477 18.0872477-18.0872477 45.21811852 0 63.30536622 18.0872477 18.0872477 45.21811852 18.0872477 63.30536622 0l397.91944576-384.35400965L1338.26562665 723.13589111c18.0872477 18.0872477 45.21811852 18.0872477 63.30536696 0 18.0872477-18.0872477 18.0872477-45.21811852 0-63.30536622l-655.66272296-633.0536637c-9.04362385-9.04362385-18.0872477-13.56543541-31.6526831-13.56543541z"  horiz-adv-x="1673" />

    
    <glyph glyph-name="VIP2" unicode="&#59064;" d="M1815.272727 300.21818199999996c-60.509091-41.890909-134.981818-65.163636-209.454545-65.163637h-283.927273l-51.2-167.563636h-167.563636l102.4 339.781818H1675.636364c23.272727 0 46.545455 9.309091 65.163636 23.272728 18.618182 13.963636 32.581818 32.581818 41.890909 55.854545 9.309091 18.618182 4.654545 41.890909-4.654545 55.854545-13.963636 13.963636-32.581818 23.272727-51.2 18.618182H1252.072727l162.909091 172.218182h339.781818c69.818182 4.654545 130.327273-23.272727 172.218182-69.818182 37.236364-51.2 46.545455-121.018182 23.272727-181.527272-23.272727-74.472727-69.818182-139.636364-134.981818-181.527273zM1047.272727 733.090909h167.563637l-204.8-665.6h-167.563637l204.8 665.6z m0 0h-297.890909L446.836364 444.509091V733.090909H195.490909v-83.781818H279.272727v-614.4l768 698.181818z"  horiz-adv-x="2159" />

    
    <glyph glyph-name="pinzhong" unicode="&#59042;" d="M623.53320313 576.70019548a121.68457006 121.68457006 0 0 0-243.36914088 1e-8H319.29980452a182.59277318 182.59277318 0 0 1 365.05371094 0h-60.82031233zM866.99023403-11.5078125H157.05371059A40.6054685 40.6054685 0 0 0 116.4921875 29.00976596999999L177.35644523 738.94628941A40.6054685 40.6054685 0 0 0 217.87402369 779.5078125h588.25195262a40.6054685 40.6054685 0 0 0 40.56152387-40.56152309L907.5078125 29.00976596999999a40.6054685 40.6054685 0 0 0-40.51757847-40.51757847z"  horiz-adv-x="1024" />

    
    <glyph glyph-name="hanghuo" unicode="&#59043;" d="M482.978125 825.875L137.29375 629.28125l352.2234375-201.65625 345.6421875 197.4375z m126.5625-261.5625a21.684375 21.684375 0 0 0-28.940625-7.59375L390.41875 665.140625a20.75625 20.75625 0 0 0-7.8890625 28.6875l2.19375 3.796875a21.09375 21.09375 0 0 0 28.940625 7.59375l190.35-108.84375a21.09375 21.09375 0 0 0 7.8890625-29.109375l-2.109375-2.953125zM110.546875 441.546875L110.125 441.125v-260.71875l210.09375-119.390625 0.421875 0.421875 136.85625-78.46875v401.625L110.546875 581.609375zM811.9140625 319.625a179.3390625 179.3390625 0 0 0 52.1859375-7.59375V580.34375L511.91875 378.6875V-17.875l147.65625 84.375a163.0546875 163.0546875 0 0 0-23.2453125 84.375 172.1671875 172.1671875 0 0 0 175.4578125 168.75zM854.1859375 189.60312499999998c-30.6703125 78.8484375-153.309375 43.790625-140.1890625-48.178125 13.1625-65.6859375 100.74375-144.534375 140.1890625-144.534375 43.790625 0 127.0265625 78.8484375 140.1890625 144.534375a74.503125 74.503125 0 0 1-140.1890625 48.178125z"  horiz-adv-x="1075" />

    
    <glyph glyph-name="zhifa" unicode="&#59062;" d="M1530.59789644 441.26198493l-135.52508478 144.70071384a135.52508478 135.52508478 0 0 1-98.1370368 42.18679678h-118.91403319a22.4644691 22.4644691 0 0 1-22.46446988-22.46446986v-498.91160668a22.4644691 22.4644691 0 0 1 22.46446988-22.46446911h45.45627371a22.72813686 22.72813686 0 0 1 22.14806825 19.40592685 128.88066476 128.88066476 0 0 0 255.01918734 0 22.72813686 22.72813686 0 0 1 22.4644691-19.40592685h3.32221a22.4644691 22.4644691 0 0 1 22.46446988 22.46446911V395.01470873a66.28600473 66.28600473 0 0 1-18.29852351 46.2472762z m-60.1161856-76.51630251a22.4644691 22.4644691 0 0 0-22.46446911-22.46446986h-191.52805786a22.4644691 22.4644691 0 0 0-22.46446987 22.46446986V526.32111405a22.4644691 22.4644691 0 0 0 22.46446987 22.46446987h8.85922745a133.62667895 133.62667895 0 0 0 95.60582851-40.182924l96.4495641-97.02963347a45.19260595 45.19260595 0 0 0 13.02517382-31.64009741zM1371.55367232 168.10247489000005a89.64694327 89.64694327 0 1 0-88.11767216-87.85400439 89.64694327 89.64694327 0 0 0 88.11767216 87.85400439z m-677.67815849 0A89.64694327 89.64694327 0 1 0 606.54884417 80.24847050000005a89.64694327 89.64694327 0 0 0 87.27393579 87.85400439zM1127.23938441 779.49462942H587.30111813a43.76880177 43.76880177 0 0 1-44.92893897-42.5031984v-613.29055959a40.49932486 40.49932486 0 0 1 41.5539951-39.33918766 125.294787 125.294787 0 0 0 119.4413687 120.70697208 127.87872837 127.87872837 0 0 0 137.10708976-102.35571548 22.09533517 22.09533517 0 0 1 22.14806826-18.3512566H1127.02845051a43.76880177 43.76880177 0 0 1 44.92893897 42.50319763V736.9914310199999A43.76880177 43.76880177 0 0 1 1127.23938441 779.49462942zM488.05667877 590.65597987H286.29832235a24.57380882 24.57380882 0 0 0-23.04453769 10.54669862 21.77893356 21.77893356 0 0 0 0 24.20467489 24.57380882 24.57380882 0 0 0 23.04453769 10.5466994h201.75835642a24.57380882 24.57380882 0 0 0 23.04453769-10.5466994 21.77893356 21.77893356 0 0 0 0-24.20467489 24.57380882 24.57380882 0 0 0-23.04453769-10.54669862z m-81.73691912-107.04899734H204.50867013a24.57380882 24.57380882 0 0 0-23.04453845 10.54669939 21.77893356 21.77893356 0 0 0 0 24.20467411 24.57380882 24.57380882 0 0 0 23.04453846 10.54669939h201.81108951a24.57380882 24.57380882 0 0 0 23.0445377-10.54669939 21.77893356 21.77893356 0 0 0 0-24.20467411 24.57380882 24.57380882 0 0 0-23.0445377-10.54669939z m81.73691912-121.70890923H286.29832235a24.57380882 24.57380882 0 0 0-23.04453769 10.54669938 21.77893356 21.77893356 0 0 0 0 24.2046749 24.57380882 24.57380882 0 0 0 23.04453769 10.54669939h201.75835642a24.57380882 24.57380882 0 0 0 23.04453769-10.54669939 21.77893356 21.77893356 0 0 0 0-24.2046749 24.57380882 24.57380882 0 0 0-23.04453769-10.54669938z m-81.73691912-106.99626349H204.50867013a22.83360381 22.83360381 0 1 0 1e-8 45.6672076h201.81108951a22.83360381 22.83360381 0 1 0 0-45.6672076z"  horiz-adv-x="1775" />

    
    <glyph glyph-name="dijia" unicode="&#59063;" d="M499.28667207 563.24220702a188.51475569 188.51475569 0 0 1 10.42910687-31.92987175 36.47716026 36.47716026 0 0 1 13.09816741-16.75576882 22.43987887 22.43987887 0 0 1 18.33743392-1.97708175 22.73644174 22.73644174 0 0 1 18.33743468 19.77081834 130.38854911 130.38854911 0 0 1-5.33812105 46.21428837q-1.43338443 5.78296461-3.21275785 11.46707544a91.3411821 91.3411821 0 0 1-13.59243786 29.65622789 22.04446298 22.04446298 0 0 1-24.7135235 7.66119181 23.13185763 23.13185763 0 0 1-14.82811394-10.82452278 37.71283636 37.71283636 0 0 1-3.80588284-21.10534899c0-1.63109275 0.49427044-3.65760141 0.69197877-5.38754793a198.44959213 198.44959213 0 0 1 4.59671539-26.78945983z m279.90536467-145.76036039a22.48930653 22.48930653 0 0 1 25.35607462-8.10603534 22.78586863 22.78586863 0 0 1 18.18915323 20.01795355 130.14141389 130.14141389 0 0 1-5.2392665 46.1648615 109.77747056 109.77747056 0 0 1-16.70634192 40.72788666 21.99503609 21.99503609 0 0 1-24.7135235 7.61176491 23.57670118 23.57670118 0 0 1-15.42123817-10.725669 38.75080413 38.75080413 0 0 1-4.00359117-20.85821376 168.64508279 168.64508279 0 0 1 5.4369756-32.4241422 117.14210026 117.14210026 0 0 1 17.10175781-42.30955175z m310.994977 45.76944562a194.19886574 194.19886574 0 0 0-52.63980486-63.36547387l8.74858723-35.09320271a96.67930314 96.67930314 0 0 0-9.88540878-71.76807209 91.58831732 91.58831732 0 0 0-56.19855249-43.54522785L357.82646497 84.24469911999995a85.55821749 85.55821749 0 0 0-16.95347715-2.61963365v-14.82811394a36.37830649 36.37830649 0 0 1 35.78518149-36.92200381h642.55160566a36.37830649 36.37830649 0 0 1 35.78518149 36.92200381v79.08327489a150.604211 150.604211 0 0 1 121.2939721 164.04836741 155.39863472 155.39863472 0 0 1-86.25019627 153.22384386zM359.45755695 143.26059280000004l603.65252007 157.86998691a35.34033794 35.34033794 0 0 1 24.71352351 43.00153052l-18.53514301 73.25088263a135.43010728 135.43010728 0 0 1 79.72582601 101.96799732 190.68954577 190.68954577 0 0 1-4.20129873 79.67639912q-1.87822797 7.41405736-4.25072563 14.82811395c-0.49427044 1.63109275-1.13682232 3.11390407-1.68051964 4.69556916q-1.53223821 4.64614228-3.31161241 9.19343079l-2.27364386 5.2392665c-1.13682232 2.61963364-2.27364386 5.23926727-3.45989309 7.76004636s-1.82880109 3.45989307-2.76791506 5.18984038-2.4219253 4.59671539-3.70702829 6.82093236-2.07593631 3.3610393-3.16333097 4.9427044-2.61963364 4.10244495-4.05301807 6.07952671-2.32307153 3.16333097-3.50931996 4.94270439-2.86676886 3.7070283-4.34958017 5.4864025-2.52077909 2.91619574-3.80588285 4.34958016-3.06447718 3.3610393-4.69556918 4.9427044-2.71848742 2.66906053-4.15187184 3.95416429-3.26218475 2.96562263-4.94270516 4.3495794-2.91619574 2.37249842-4.44843395 3.50932074l-5.23926651 3.80588284-4.94270516 3.11390329q-4.94270439 3.16333097-10.52796066 5.88181917c-1.92765487 0.93911399-3.95416352 1.82880109-5.93124604 2.71848741a108.98663801 108.98663801 0 0 1-11.46707465 4.30015252q-2.61963364 0.8896871-5.2392665 1.63109275a163.80123218 163.80123218 0 0 1-6.67265171 1.63109276l-5.38754793 1.1862492c-2.37249842 0.39541665-4.94270439 0.69197877-7.16692138 1.03796777s-3.55874762 0.49427044-5.33812104 0.64255188c-2.57020674 0-4.94270439 0.2965621-7.76004637 0.44484278h-5.18984038c-4.25072562 0-8.6003058 0-12.99931286-0.44484278L874.19082025 794.31364969a34.59893228 34.59893228 0 0 1-2.27364387 6.27723504c-0.24713523 0.59312422-0.64255188 1.18624921-0.939114 1.77937344a35.88403604 35.88403604 0 0 1-2.27364463 3.80588283 25.9491996 25.9491996 0 0 1-1.43338442 1.82880108 31.97929943 31.97929943 0 0 1-2.7679143 3.01504953 34.94492205 34.94492205 0 0 1-4.9427044 4.05301807 35.68632772 35.68632772 0 0 1-1.7793742 1.13682154 32.57242364 32.57242364 0 0 1-4.39900706 2.17479009l-1.2356761 0.49427045a32.22643464 32.22643464 0 0 1-6.07952671 1.58166585h-1.63109277a34.59893228 34.59893228 0 0 1-12.40618864-0.79083255l-603.6525193-158.16654901a35.29091105 35.29091105 0 0 1-24.96065872-42.95210364l18.48571534-73.05317508A145.56265206 145.56265206 0 0 1 145.33959144 363.35923124q1.87822797-7.46348425 4.25072639-14.82811395l1.5816651-4.49786161c1.13682232-3.21275785 2.22421698-6.37608882 3.45989384-9.39113834l2.22421698-4.94270517c1.13682232-2.66906053 2.27364386-5.33812105 3.60817451-7.95775469l2.61963287-4.94270439c0.8896871-1.58166586 2.52077909-4.94270439 3.85530973-7.06806759s2.02650865-3.21275785 3.0150503-4.94270439 2.71848742-4.30015328 4.20129873-6.32666193l3.36103929-4.5472885c1.13682232-1.48281132 2.96562263-3.85530974 4.54728774-5.68411082l3.70702906-4.15187185c1.58166586-1.72994654 3.16333097-3.45989307 4.9427044-4.94270438q4.44843396-4.30015328 9.19343078-8.3037437l4.30015329-3.3116124c1.77937342-1.38395753 3.60817451-2.66906053 5.48640171-3.95416352a88.96868369 88.96868369 0 0 1 10.37968-6.32666192c1.58166586-0.8896871 3.11390407-1.72994654 4.94270439-2.52077908l6.27723504-2.81734198c2.1253632-0.93911399 3.21275785-1.43338443 4.94270439-1.97708176s4.39900706-1.58166586 6.6726517-2.27364464l3.55874686-1.13682153 1.38395753-0.44484356c2.37249842-0.64255188 4.94270439-1.13682232 7.21634904-1.68051965 1.63109275-0.345989 3.26218475-0.74140567 4.94270438-1.03796776 2.61963364-0.44484354 5.33812105-0.79083255 8.05660847-1.13682233l4.5472885-0.54369732c3.31161241-0.2965621 6.67265093-0.39541665 9.88540956-0.44484355h3.01504953c4.44843396 0 8.99572245 0 13.59243784 0.54369733l18.48571536-73.10260197a33.65981907 33.65981907 0 0 1 2.27364464-6.22780738c0.24713523-0.64255188 0.64255188-1.18624921 0.9391132-1.82880109s0.54369733-0.84025944 0.79083333-1.2356761 0.93911399-1.72994654 1.53223821-2.52077908a37.41627425 37.41627425 0 0 1 5.88181838-6.42551648 29.65622789 29.65622789 0 0 1 3.3116124-2.4713522l1.77937343-1.18624921a34.59893228 34.59893228 0 0 1 4.49786162-2.12536242l1.13682154-0.49427044a32.4241422 32.4241422 0 0 1 6.12895437-1.53223898h1.48281132a26.83888593 26.83888593 0 0 1 9.58884667 0.44484355c0.98854087 0 1.92765487 0 2.91619574 0.39541666z m441.53180754 395.71293428a56.39626005 56.39626005 0 0 0 25.01008563-9.88540879 68.20932447 68.20932447 0 0 0 19.47425623-22.29159819 140.12567723 140.12567723 0 0 0 13.29587496-34.5989323 93.07112863 93.07112863 0 0 0-2.27364386-65.58969083 64.25516018 64.25516018 0 0 0-43.54522786-32.67127818 70.03812478 70.03812478 0 0 0-36.47716027-0.345989 59.31245579 59.31245579 0 0 0-30.34820666 20.166235 104.4393495 104.4393495 0 0 0-19.77081911 41.81528132 108.73950278 108.73950278 0 0 0 0 67.12192903 60.64698644 60.64698644 0 0 0 44.48434262 34.20351639 76.61192194 76.61192194 0 0 0 30.15049832 2.07593555z m-98.85409323 131.37708997a92.28029608 92.28029608 0 0 0 4.94270439 14.03728141 13.39472952 13.39472952 0 0 0 9.04514935 6.57379716 14.82811395 14.82811395 0 0 0 11.17051254-1.08739544 13.44415641 13.44415641 0 0 0 6.42551648-8.94629479 46.31314293 46.31314293 0 0 0-3.50932074-19.22712102l-27.18487569-88.32613256L627.30272276 327.47519519c-2.52077909-9.04514934-6.62322404-14.33384351-12.20848032-15.76722794a16.31092526 16.31092526 0 0 0-10.67624209 1.2356761 12.06019963 12.06019963 0 0 0-7.31520282 8.50145202 21.84675464 21.84675464 0 0 0 1.48281132 12.06019965l73.59687241 239.91888367 29.65622789 97.02529292zM466.26940487 582.32104736a56.29740626 56.29740626 0 0 0 14.0372814 33.85752664 69.19786535 69.19786535 0 0 0 35.04377584 19.47425623 77.99587947 77.99587947 0 0 0 30.19992522 2.42192531 54.3697514 54.3697514 0 0 0 25.10894017-10.28082545 71.12552021 71.12552021 0 0 0 19.42482933-22.48930653 136.51750271 136.51750271 0 0 0 12.40618864-31.97929865c0.2965621-0.98854087 0.64255188-1.77937342 0.88968633-2.76791507A93.02170175 93.02170175 0 0 0 601.10638794 504.967719a64.55172307 64.55172307 0 0 0-43.49580097-32.7207043 70.87838499 70.87838499 0 0 0-36.27945194-0.39541665 57.82964447 57.82964447 0 0 0-30.19992599 20.31451643 106.16929604 106.16929604 0 0 0-19.77081833 41.81528131 163.10925341 163.10925341 0 0 0-5.53582939 39.54163746c0 3.06447718 0 6.1289536 0.29656211 8.94629479zM333.16236836 429.73975462a29.01367601 29.01367601 0 0 0 18.09029945 11.21993943l56.19855172 14.82811395a28.66768702 28.66768702 0 0 0 21.20420277-0.939114 21.0559221 21.0559221 0 0 0 10.47853377-14.13613516 21.3524842 21.3524842 0 0 0-2.47135219-17.29946615 29.11253056 29.11253056 0 0 0-18.18915325-11.21993944l-56.14912482-14.82811395a28.91482223 28.91482223 0 0 0-21.00649444 0.93911399 20.66050543 20.66050543 0 0 0-10.62681521 13.88899996 21.50076488 21.50076488 0 0 0 2.4713522 17.54660137z"  horiz-adv-x="1347" />

    
    <glyph glyph-name="gerenzhongxin-xuanzhong" unicode="&#59054;" d="M404-66V834h108v-328.5L620 384l-108-121.464V-66z"  horiz-adv-x="1024" />

    
    <glyph glyph-name="xuanzhong4" unicode="&#59055;" d="M90.125-37.875h920.45454538V805.875L90.125-37.875z m824.57386387 325.99431848l-195.59659077-191.76136386c-3.8352269-3.8352269-11.50568152-7.67045462-19.17613697-7.67045462s-15.34090925 3.8352269-19.17613613 7.67045462l-111.22159076 107.38636386c-11.50568152 11.50568152-11.50568152 30.68181848 0 42.1875 11.50568152 11.50568152 30.68181848 11.50568152 42.1875 0l92.04545463-88.21022772 176.42045461 172.58522772c11.50568152 11.50568152 30.68181848 11.50568152 42.1875 0 3.8352269-15.34090925 3.8352269-30.68181848-7.67045461-42.1875z"  horiz-adv-x="1117" />

    
    <glyph glyph-name="zanwumiaosha" unicode="&#59056;" d="M168.35814517 142.64670503000002l2.15456589-2.99765755 0.65573711 1.03044453a17.4707188 17.4707188 0 0 1 25.66743696 11.05385998 17.2365271 17.2365271 0 0 1-6.97891992 18.12645594v0.37470739a380.14035727 380.14035727 0 0 0-6.37002082 420.98343146A390.67899417 390.67899417 0 0 0 571.63666528 765.26939612l0.28103054 0.42154541a17.51755683 17.51755683 0 0 1 28.43090196 10.72599143 17.28336511 17.28336511 0 0 1-9.88289978 18.31380962l0.74941397 1.17095938a425.6672698 425.6672698 0 0 1-431.89677576-182.43552118 413.9576727 413.9576727 0 0 1 4.21545493-463.93423269 17.28336511 17.28336511 0 0 1 4.68383835-6.88524307z m653.81705805 525.52671294l-0.28103055-0.3747074a17.56439566 17.56439566 0 0 1-17.51755683 3.32552609 17.28336511 17.28336511 0 0 1-0.93676767-32.17797262 383.7937511 383.7937511 0 0 0-209.0397258-630.06999527 397.61107608 397.61107608 0 0 0-189.83598651 6.22950513 17.4707188 17.4707188 0 0 1-27.07258804-10.1170915 17.2365271 17.2365271 0 0 1 7.63465704-18.73535504v-0.32786855l1.87353534-0.5620611a16.95549655 16.95549655 0 0 1 5.43325315-1.63934363 425.80778549 425.80778549 0 0 1 477.33001227 181.26456179 414.19186523 414.19186523 0 0 1-47.5878024 503.27847895z m-226.04206037-199.48469458L776.88248157 776.04222556a19.6252847 19.6252847 0 0 1-4.21545493 24.96486098 20.23418381 20.23418381 0 0 1-25.71427496 0.42154542l-454.33236347-366.13567942 202.34183643-33.44260884-308.05607812-427.91551255a6.97891992 6.97891992 0 0 1 0.7962528-9.36767753 7.21311164 7.21311164 0 0 1 9.36767753-0.3747074L798.52181728 435.29295254l-202.34183641 33.39577085z"  horiz-adv-x="1024" />

    
    <glyph glyph-name="shangchuantupian" unicode="&#59059;" d="M377.03075346 455.71805244a60.37391986 60.37391986 0 1 1 60.34017315 58.65280829 58.45032395 58.45032395 0 0 1-60.34017315-58.65280829z m62.36501084-205.25107982l102.59179238-97.8671706 185.03644729 216.9951405 231.303996-236.53482743 42.25161924 39.11312138-277.57154388 283.47732173-185.07019401-220.80858561-104.61663088 101.64686819-177.00459-216.9951405 46.2675487-35.19843367zM998.55478154 827.1745858h64.3561018v-134.98920099h138.76889859v-62.4999993h-138.76889859v-134.98920098H998.55478154v134.98920098h-138.76889859V692.25287987h138.7688986zM998.52103402 827.1408391h64.38984932v-135.39416886H1201.71352863v-62.76997869h-138.80264528v-135.39416804h-64.38984933V628.9766915499999h-138.83639284v62.76997869h138.80264613z m4.08342369-410.0634451v-376.72111231H213.89630439V633.0601152500001H785.27184441V689.7893268H155.54722221V-16.54166667000004h905.33882263V417.077394z"  horiz-adv-x="1269" />

    
    <glyph glyph-name="fuwu" unicode="&#59060;" d="M408.80695498-11.561564480000015a30.95264081 30.95264081 0 0 0-22.99037722 10.07147296 314.69396814 314.69396814 0 0 1-211.76457358 88.74496417 30.16168699 30.16168699 0 1 0-0.36911177 60.3233748 371.95898977 371.95898977 0 0 0 258.37809025-108.8879101 29.79257603 29.79257603 0 0 0-2.47832033-42.60601978 30.84718029 30.84718029 0 0 0-20.40659638-7.64588205z m205.96424881 0a30.89991055 30.89991055 0 0 0-21.09208886 8.06772409 29.73984577 29.73984577 0 0 0-1.63463708 42.60601977 377.86477423 377.86477423 0 0 0 258.11443899 108.57152857 30.16168699 30.16168699 0 1 0-0.31638154-60.32337479 320.33610132 320.33610132 0 0 1-212.50279632-89.21953646 30.74171978 30.74171978 0 0 0-22.51580493-9.70236118z m-54.15393905 153.44494766H463.27727475a30.74171978 30.74171978 0 0 0-8.96413843 1.31825555 336.36608899 336.36608899 0 0 0-249.15030139 167.26026544A413.66859521 413.66859521 0 0 0 167.51345667 666.07452475a30.79445004 30.79445004 0 0 0 27.73609689 18.50830801h9.22778887a407.71008051 407.71008051 0 0 0 162.88365757-32.32362579A436.81716321 436.81716321 0 0 0 489.53692532 798.11100201a31.00537106 31.00537106 0 0 0 8.1731846 5.27302222 31.6381333 31.6381333 0 0 0 29.21254322-2.37285984 28.94889194 28.94889194 0 0 0 4.21841793-3.26927416 430.80591743 430.80591743 0 0 0 121.27951182-146.85366907 407.65735025 407.65735025 0 0 0 166.68023264 33.90553262h9.38597963a30.74171978 30.74171978 0 0 0 27.73609691-18.50830801 413.51040444 413.51040444 0 0 0-37.64937827-355.66535083 336.4715495 336.4715495 0 0 0-249.04484088-167.26026545 34.43283518 34.43283518 0 0 0-9.06959813-1.26552529zM468.76121716 202.20675796l42.97513157-240.13343352a30.42533826 30.42533826 0 0 0-30.68898954 30.16168697v179.86278901a30.74171978 30.74171978 0 0 0 61.43070932 0v-179.75732849a30.47806851 30.47806851 0 0 0-30.7417198-30.16168699z m0 0"  horiz-adv-x="1024" />

    
    <glyph glyph-name="tuikuantishi" unicode="&#59061;" d="M511.999775-65.99954998999999a449.999775 449.999775 0 1 0 449.99977499 449.99977499 449.279775 449.279775 0 0 0-449.99977499-449.99977499z m-4.81499737 173.56491298a492.16475391 492.16475391 0 0 1 88.37995518 70.69496484l-17.68499032 16.0649921q-57.86997099-53.05497363-72.31496397-53.05497364a8.59499561 8.59499561 0 0 0-6.43499737 4.81499736 22.85998857 22.85998857 0 0 0-3.19499824 9.62999561 1080.98945947 1080.98945947 0 0 0 46.61997715 184.81490772 805.81459746 805.81459746 0 0 1 28.93498505 106.06494639 19.79999033 19.79999033 0 0 1-8.0549956 16.06499208 41.57997891 41.57997891 0 0 1-22.49998857 6.43499736 138.10493057 138.10493057 0 0 1-62.68496924-19.30499033 312.74984356 312.74984356 0 0 1-80.36995957-67.4999666l19.30499033-14.44499297A423.35978818 423.35978818 0 0 0 466.99979786 411.31521094a38.33998066 38.33998066 0 0 0 19.30499032 6.43499736 7.60499648 7.60499648 0 0 0 8.05499561-8.05499648 82.93495869 82.93495869 0 0 0-3.19499824-17.68499122 1218.14939092 1218.14939092 0 0 1-65.87996748-263.56486816 33.9299833 33.9299833 0 0 1 9.6299956-25.69498681 32.7149833 32.7149833 0 0 1 24.1199877-9.62999561 78.20996133 78.20996133 0 0 1 48.14997626 14.44499297z m102.86994815 480.55476006a44.72997802 44.72997802 0 0 1 12.86999385 33.7499833 34.82998242 34.82998242 0 0 1-8.05499648 22.49998857 29.15998506 29.15998506 0 0 1-22.49998858 9.62999473 43.91997802 43.91997802 0 0 1-30.55498418-12.86999297 51.88497363 51.88497363 0 0 1-12.86999385-33.7499833 32.7149833 32.7149833 0 0 1 9.62999561-24.11998769 29.15998506 29.15998506 0 0 1 22.49998858-9.62999561 36.49498154 36.49498154 0 0 1 28.97998505 14.48999297z"  horiz-adv-x="1024" />

    
    <glyph glyph-name="erweima-youxia" unicode="&#59053;" d="M838.7238453 779.5078125h68.7839672v-791.015625H116.4921875v68.78396719h722.2316578z"  horiz-adv-x="1024" />

    
    <glyph glyph-name="erweimabianjiao" unicode="&#59052;" d="M185.2761547-11.5078125H116.4921875V779.5078125h791.015625v-68.78396719H185.2761547z"  horiz-adv-x="1024" />

    
    <glyph glyph-name="weixindenglu1" unicode="&#59050;" d="M792.094118 103.90588200000002L873.411765 22.588235000000054V186.72941200000002h-81.317647zM216.847059 679.152941l164.141176-164.141176V679.152941H216.847059zM792.094118 350.870588H873.411765v-81.317647h-81.317647zM873.411765 760.470588H545.129412v-328.282353H873.411765V760.470588z m-40.658824-287.623529H585.788235V719.811765h245.458824v-246.964706zM668.611765 227.388235l40.658823-40.658823h40.658824v81.317647h-81.317647v82.823529h-123.482353zM176.188235 719.811765h246.964706v-246.964706l40.658824-40.658824V760.470588H135.529412zM627.952941 679.152941h164.141177v-164.141176H627.952941z"  horiz-adv-x="1024" />

    
    <glyph glyph-name="zhanghaodenglu1" unicode="&#59051;" d="M789.082353 661.082353H295.152941v-60.235294l286.117647-286.117647h207.811765zM853.835294 67.76470600000005c16.564706 0 28.611765 13.552941 28.611765 30.117647s-13.552941 28.611765-30.117647 28.611765h-81.317647L828.235294 67.76470600000005h25.6c-1.505882 0 0 0 0 0zM245.458824 650.541176v58.729412h594.823529V263.529412H632.470588l48.188236-48.188236h137.035294c39.152941 0 70.776471 31.623529 70.77647 70.776471V689.694118c0 39.152941-31.623529 70.776471-70.77647 70.77647H266.541176c-36.141176 0-64.752941-27.105882-70.77647-61.741176l49.694118-48.188236z"  horiz-adv-x="1024" />

    
    <glyph glyph-name="shangjiashijian" unicode="&#59049;" d="M230.75000027 299.625h168.75V805.875h224.99999946v-506.25h168.75l-281.24999973-337.5z"  horiz-adv-x="1024" />

    
    <glyph glyph-name="jiageshaixuan" unicode="&#59047;" d="M512 805.875l301.33928595-361.60714297H210.66071405zM512-37.875L210.66071405 323.73214298000005h602.6785719z"  horiz-adv-x="1024" />

    
    <glyph glyph-name="gengduofenlei" unicode="&#59048;" d="M205.15624973 805.875h153.42187554a115.03124973 115.03124973 0 0 0 115.03124973-115.03124973v-153.42187554a115.03124973 115.03124973 0 0 0-115.03124973-115.03124973H205.15624973A115.03124973 115.03124973 0 0 0 90.125 537.42187473V690.84375027A115.03124973 115.03124973 0 0 0 205.15624973 805.875z m0-61.3828125a53.71875027 53.71875027 0 0 1-53.71874946-53.71875027v-153.42187473a53.71875027 53.71875027 0 0 1 53.71874946-53.71875027h153.42187554a53.71875027 53.71875027 0 0 1 53.71874946 53.71875027V690.84375027a53.71875027 53.71875027 0 0 1-53.71874946 53.50781196z m0-398.8828125h153.42187554a115.03124973 115.03124973 0 0 0 115.03124973-115.03124973v-153.42187554A115.03124973 115.03124973 0 0 0 358.57812527-37.875H205.15624973A115.03124973 115.03124973 0 0 0 90.125 77.15624973000001V230.57812527a115.03124973 115.03124973 0 0 0 115.03124973 115.10156196z m0-61.3828125a53.71875027 53.71875027 0 0 1-53.71874946-53.71875027v-153.42187473a53.71875027 53.71875027 0 0 1 53.71874946-53.71875027h153.42187554a53.71875027 53.71875027 0 0 1 53.71874946 53.71875027V230.57812527a53.71875027 53.71875027 0 0 1-53.71874946 53.71874946zM665.3515625 805.80468777h153.42187473a115.03124973 115.03124973 0 0 0 115.03125054-115.03125054v-153.42187473a115.03124973 115.03124973 0 0 0-115.03125054-115.03124973H665.42187473a115.03124973 115.03124973 0 0 0-115.03124973 115.03124973V690.84375027A115.03124973 115.03124973 0 0 0 665.42187473 805.875z m0-61.3828125a53.71875027 53.71875027 0 0 1-53.71875027-53.71875027V537.28125027a53.71875027 53.71875027 0 0 1 53.71875027-53.71875027h153.42187473a53.71875027 53.71875027 0 0 1 53.71875027 53.71875027V690.84375027a53.71875027 53.71875027 0 0 1-53.71875027 53.71874946z m-57.51562527-487.0546875h268.45312527a30.65624973 30.65624973 0 1 1 0 61.3828125H607.90625027a30.65624973 30.65624973 0 1 1 0-61.3828125z m0-134.22656304h191.7421875a30.65624973 30.65624973 0 1 1 0 61.3828125H607.90625027a30.65624973 30.65624973 0 1 1 0-61.3828125z m0-134.22656223h115.03125054a30.65624973 30.65624973 0 1 1 0 61.3828125H607.90625027a30.65624973 30.65624973 0 1 1 0-61.3828125z"  horiz-adv-x="1024" />

    
    <glyph glyph-name="weixuan" unicode="&#59046;" d="M512-66C264.5-66 62 136.5 62 384S264.5 834 512 834s450-202.5 450-450-202.5-450-450-450z m0 855c-225 0-405-180-405-405s180-405 405-405 405 180 405 405-180 405-405 405z"  horiz-adv-x="1024" />

    
    <glyph glyph-name="xuanzhong11" unicode="&#59045;" d="M512 834C264.5 834 62 631.5 62 384s202.5-450 450-450 450 202.5 450 450S759.5 834 512 834z m202.5-382.5l-229.5-225c-4.5-4.5-13.5-9-22.5-9s-18 4.5-22.5 9l-130.5 126c-13.5 13.5-13.5 36 0 49.5 13.5 13.5 36 13.5 49.5 0L462.5 294l207 202.5c13.5 13.5 36 13.5 49.5 0 9-13.5 9-31.5-4.5-45z"  horiz-adv-x="1024" />

    
    <glyph glyph-name="pingjia" unicode="&#59044;" d="M1067.05706094 438.7274475c-73.90353938-82.62886875-205.83051937-219.70379344-205.83051938-219.70379344s21.1152975-150.16291781 33.76702407-253.03455187c5.67146438-52.35197625-35.94835688-75.03783281-82.36710938-54.446055a36378.6029475 36378.6029475 0 0 0-253.99433719 118.75173281c-30.97491938-13.78602-166.91555062-76.43388563-256.35017625-117.09392063-47.20403156-19.98100406-88.73659969 2.09407875-83.76316218 54.44605594 11.95370156 102.60987281 33.767025 252.07476562 33.767025 252.07476469S119.57354563 356.09857781000005 44.53571281 438.7274475c-26.78676094 30.2768925-8.72532937 73.03100719 42.92862094 80.62204313 107.05979156 18.58495125 272.57928937 47.90205844 272.57928937 47.9020575S451.13606094 720.46833188 507.937955 814.09111594c31.67294531 57.1509075 53.48626875 50.2578975 57.06365437 48.86184468 9.85962188-2.79210563 25.39070812-14.48404688 45.10995282-48.86184468 56.27837437-93.62278406 145.713-246.83956781 145.713-246.83956782s163.42541906-29.57886656 269.00190468-48.25107093c51.39219-7.59103688 68.31932906-50.95592344 42.23059407-80.62204313z"  horiz-adv-x="1116" />

    
    <glyph glyph-name="guanbi4" unicode="&#59040;" d="M877.28264662-11.507416990000024a30.33511551 30.33511551 0 0 0-21.43628706 8.89882767L125.43056596 727.7281035A30.33511551 30.33511551 0 0 0 168.30314084 770.60067916l730.45534439-730.4157936A30.4142163 30.4142163 0 0 0 877.24309661-11.507416990000024M146.9064038-11.507416990000024a30.2955655 30.2955655 0 0 0-21.43628783 51.81095335L856.20231273 771.03573312a30.33511551 30.33511551 0 0 0 42.83302488-42.91212567L168.34269162-2.4503877399999965a30.2955655 30.2955655 0 0 0-21.43628782-8.89882768"  horiz-adv-x="1024" />

    
    <glyph glyph-name="pinzhongqiquan" unicode="&#59037;" d="M828.58248388 608.98600078h-87.94785058a221.49458526 221.49458526 0 0 1-66.94836328 159.09611045 231.09435088 231.09435088 0 0 1-323.24209893 0A221.64458203 221.64458203 0 0 1 283.44580947 608.98600078H195.49795888A82.8479751 82.8479751 0 0 1 112.0000001 526.78800938v-510.58751836A82.8479751 82.8479751 0 0 1 195.49795888-65.99750039000003h632.98452745A82.8479751 82.8479751 0 0 1 911.98044512 16.20049101999996V526.78800938A82.74797754 82.74797754 0 0 1 828.58248388 608.98600078zM511.99022217 777.73187519A170.29583701 170.29583701 0 0 0 683.48603076 608.98600078H340.59441201A170.29583701 170.29583701 0 0 0 511.99022217 777.73187519z m228.5944128-365.64106201A28.59930088 28.59930088 0 1 0 711.98533408 440.19012627a28.44930498 28.44930498 0 0 0 28.64929922-28.09931309z m-399.99022296 0A28.59930088 28.59930088 0 1 0 311.99511114 440.19012627a28.44930498 28.44930498 0 0 0 28.59930087-28.09931309z m514.33742724-395.99031972a26.19935947 26.19935947 0 0 0-26.34935537-25.94936602H195.49795888a26.19935947 26.19935947 0 0 0-26.34935625 25.94936602V526.78800938a26.19935947 26.19935947 0 0 0 26.34935625 25.94936601h87.94785059v-61.09850654a85.7479043 85.7479043 0 1 1 57.14860254 0V552.68737617h342.89161875v-61.04850732a85.7479043 85.7479043 0 1 1 57.14860254 0V552.68737617h87.94785058a26.19935947 26.19935947 0 0 0 26.34935538-25.94936513z"  horiz-adv-x="1024" />

    
    <glyph glyph-name="dijiachangxuan" unicode="&#59038;" d="M191.92197824 643.31576678l455.13627594 0.3473943-397.66731812 102.77911065a36.32752771 36.32752771 0 0 1-42.72950967-29.77666177z m-53.49873586-11.76178189a30.66996149 30.66996149 0 0 0-1.8858546 18.16376386l15.93051334 79.40443167a97.02229011 97.02229011 0 0 0 39.70221626 61.19103982A87.59301307 87.59301307 0 0 0 261.25197229 803.76234558h0.79404456l617.41908215-159.60290708h11.16624848a89.32998533 89.32998533 0 0 0 65.35977291-28.23820064 99.60293408 99.60293408 0 0 0 26.89825067-69.03222776v-80.99251996a29.23075635 29.23075635 0 0 0-18.46153014-27.59304006 145.35973718 145.35973718 0 0 1 0-268.73437254 28.23820066 28.23820066 0 0 0 15.58311987-14.54093701l0.74441656-1.63771628a30.62033349 30.62033349 0 0 0 2.92803827-13.10173104v-80.94289279a94.29276215 94.29276215 0 0 0-91.81137415-96.92303413l-709.18082831 0.6947894a89.32998533 89.32998533 0 0 0-65.35977291 28.23820066 99.60293408 99.60293408 0 0 0-26.89825067 69.03222775v80.99251995a29.23075635 29.23075635 0 0 0 18.46153015 27.59304008 145.35973718 145.35973718 0 0 1 0 268.73437252 29.23075635 29.23075635 0 0 0-18.46153015 27.64266807V546.1445935300001a97.91558981 97.91558981 0 0 0 47.99005279 85.75678565z m680.54560619-327.98992977a202.53092788 202.53092788 0 0 0 108.53593204 181.53838174V546.83938211a39.35482114 39.35482114 0 0 1-10.57071506 27.29527377 35.28534402 35.28534402 0 0 1-26.05457895 11.16624765l-708.48603973-0.54590542a35.38460001 35.38460001 0 0 1-25.90569579-11.26550363 39.70221543 39.70221543 0 0 1-10.66997105-27.59304007v-61.43917897a206.15375556 206.15375556 0 0 0 0-363.02713467v-61.68731808a39.35482114 39.35482114 0 0 1 10.57071506-27.29527294 35.33497202 35.33497202 0 0 1 26.10420694-11.16624848l709.42896743-0.69478858a37.41933856 37.41933856 0 0 1 36.32752771 38.41189343v62.67987296a201.93539447 201.93539447 0 0 0-109.18109344 181.83614887z m-451.01717084 124.06942474h347.39438764a29.77666178 29.77666178 0 0 0-1e-8-59.00741812h-347.39438763a29.77666178 29.77666178 0 0 0 0 59.00741812z m0-190.27286939h347.39438764a29.77666178 29.77666178 0 0 0-1e-8-59.00741811h-347.39438763a29.77666178 29.77666178 0 0 0 0 59.00741811z"  horiz-adv-x="1084" />

    
    <glyph glyph-name="zhengpinhanghuo" unicode="&#59039;" d="M338.77644013 528.3520230500001q-25.19050693 0-26.94247821 26.80042676a26.09016855 26.09016855 0 0 0 26.94247821 26.84777782h344.52280109a27.60538623 27.60538623 0 0 0 26.94247821-26.84777783q-3.59864385-26.84777695-26.94247821-26.80042675H555.87883731v-94.7011544h123.82176006c15.57833994-1.18376455 24.48024873-10.70123028 26.94247821-28.41034658-2.4148793-17.85116778-11.36413828-26.84777695-26.94247821-26.84777783H555.87883731v-116.19831622h136.36966289a27.74743857 27.74743857 0 0 0 28.69445039-25.04845546 24.90640401 24.90640401 0 0 0-25.09580655-28.41034658H329.77983096c-15.53098974 1.23111474-23.91204199 10.74858135-25.09580654 28.41034658a24.52759893 24.52759893 0 0 0 25.09580654 25.04845546h35.89173721V453.15930644a27.60538623 27.60538623 0 0 0 26.9424791 30.4464208 29.78351279 29.78351279 0 0 0 28.6944495-30.3990706v-191.29633242h77.18144151V528.3520230500001H338.77644013m-21.30775927 16.80945468z m528.52714453 88.07207432a30.54112207 30.54112207 0 0 1-8.80720752-42.3787667 384.62873994 384.62873994 0 0 0-322.64683418-595.33880889 385.76515342 385.76515342 0 0 0-327.61864512 181.40006163l-0.37880419 0.61555781A384.62873994 384.62873994 0 0 0 509.14381748 772.82305372 384.62873994 384.62873994 0 0 0 724.92039864 706.95840117a30.63582334 30.63582334 0 1 1 34.42386972 50.66511768A447.79441026 447.79441026 0 0 1 97.14644404 561.82888096a445.09542715 445.09542715 0 0 1 37.88046211-417.58474131 447.79441026 447.79441026 0 0 1 695.7220333-79.40691827 444.62192168 444.62192168 0 0 1 57.76770411 559.49442188 30.77787568 30.77787568 0 0 1-42.61551944 8.75985732z"  horiz-adv-x="1024" />

    
    <glyph glyph-name="dizhi-tianjia" unicode="&#59030;" d="M495.3333333-66V367.33333330000005H62v33.3333334h433.3333333V834h33.3333334v-433.3333333h433.3333333v-33.3333334H528.6666667v-433.3333333z"  horiz-adv-x="1024" />

    
    <glyph glyph-name="shanchu2" unicode="&#59036;" d="M340.57142862 834h342.85714276v-87.38571445H340.57142862zM83.42857109 659.2285710900001h857.14285782v-87.38571357H83.42857109zM380.94285693 452.05714307h87.38571445v-305.82857198H380.94285693z m174.77142891 0h87.38571445v-305.82857198H555.71428584zM806.68571416-66H217.31428584L148.95714307 628.84285722l85.41428555 8.57142862 60.00000029-616.02857139h435.64285722l59.99999942 616.02857139 85.41428554-8.57142862z"  horiz-adv-x="1024" />

    
    <glyph glyph-name="yue" unicode="&#59033;" d="M512 834a450 450 0 1 1 450-450A450 450 0 0 1 512 834z m141.50000039-435.49999981v-45.50000009H541.99999971v-63h111.50000068v-46.5000003H541.99999971v-91.59999961h-57.49999981v91.49999942h-115.9999998v46.50000029h115.4999997v63h-115.4999997v45.5000001h98.4999999l-119.99999971 206.4999999h64.49999942c56.49999961-102.4999998 90.5000001-168.00000029 102.50000068-195.49999951h0.99999932a730.00000019 730.00000019 0 0 0 33.50000039 68.49999932l69.00000029 127.00000019h60.99999961l-121.5-207h96.50000039z"  horiz-adv-x="1024" />

    
    <glyph glyph-name="weixinzhifu1" unicode="&#59034;" d="M439.06739873 265.86294052000005a33.18563935 33.18563935 0 0 0-15.54298594-3.54489169 34.08549698 34.08549698 0 0 0-29.99523779 17.69718955l-2.42688691 4.66289649-94.83948633 203.20409706a15.16122862 15.16122862 0 0 0-1.17254092 7.06251534 16.36103847 16.36103847 0 0 0 16.82460088 16.55191669 19.27875674 19.27875674 0 0 0 10.90735927-3.54489169l111.8004293-77.96034756a58.79066484 58.79066484 0 0 1 28.79542794-8.18051924 48.10145273 48.10145273 0 0 1 17.99714179 3.5448917l523.68957159 229.05453779C911.41057813 763.0748988299999 756.5533499 833.97273193 581.13574912 833.97273193 295.30840801 833.97273193 62.29995224 643.80292793 62.29995224 408.85841661c0-127.50702627 69.64348711-243.26137266 178.90795547-321.22172111a34.71266953 34.71266953 0 0 0 14.39771397-27.26839774 32.09490352 32.09490352 0 0 0-2.4268878-10.60740615c-8.3441294-31.84948828-22.87818545-83.90485898-22.87818544-86.19540469a42.56596846 42.56596846 0 0 1-2.45415586-13.007025 16.36103847 16.36103847 0 0 1 16.82460175-16.55191758 13.63419844 13.63419844 0 0 1 9.62574434 3.5448917l112.83662813 64.95332255a57.99988125 57.99988125 0 0 0 27.62288613 8.18051924 66.94391513 66.94391513 0 0 0 15.54298681-2.39961885 612.61181543 612.61181543 0 0 1 169.39128428-23.64170097c285.82734112 0 518.83579688 190.16980313 518.83579687 425.11431533a368.80507442 368.80507442 0 0 1-58.84520097 197.25958653L442.66682744 268.26255936999996l-3.59942871-2.39961885z"  horiz-adv-x="1179" />

    
    <glyph glyph-name="shangpinshuliang-jian" unicode="&#59032;" d="M62 429h900v-74.99999971H62z"  horiz-adv-x="1024" />

    
    <glyph glyph-name="shangpinshuliang-jia" unicode="&#59031;" d="M62 421.50000029h900v-75.00000058H62zM474.49999971 834h75.00000058v-900h-75.00000058z"  horiz-adv-x="1024" />

    
    <glyph glyph-name="xuanzhong3" unicode="&#59027;" d="M603.12882952-11.5078125c-23.26516539 0-46.5303308 11.63258308-58.16291311 23.26516539l-348.9774817 325.71231632C161.09068622 372.36741692 161.09068622 430.5303308 195.98843471 465.42807927c34.89774848 34.89774848 93.06066158 34.89774848 127.95840929 0L603.12882952 197.87867683000002 1138.22763516 721.34489862c34.89774848 34.89774848 93.06066158 34.89774848 127.95840929 0 34.89774848-34.89774848 34.89774848-93.06066158 0-127.95840929l-593.26171875-581.62913644c-34.89774848-11.63258308-58.16291387-23.26516539-69.79549618-23.26516539z"  horiz-adv-x="1520" />

    
    <glyph glyph-name="dizhixiala" unicode="&#59028;" d="M764.54983374 13.211425780000013L197.46142577 653.00347513 313.78725299 754.78857422l450.76258075-523.46622214L1215.31241377 754.78857422l116.32582721-101.78509909z"  horiz-adv-x="1566" />

    
    <glyph glyph-name="jinru1" unicode="&#59029;" d="M157.95715076-35.28681005999999l-64.70475431 86.27300656 377.44440216 334.30789847-377.44440216 334.3078993 64.70475431 86.27300573 485.28566015-420.58090503zM589.32218191-35.28681005999999l-64.70475513 86.27300656 377.44440217 334.30789847-377.44440217 334.3078993 64.70475513 86.27300573 485.28565933-420.58090503z"  horiz-adv-x="1198" />

    
    <glyph glyph-name="shenqingtuikuan" unicode="&#59026;" d="M512 834A449.97631699 449.97631699 0 1 1 961.97631699 384.023683 449.97631699 449.97631699 0 0 1 512 834m0-854.67080654A404.69448955 404.69448955 0 1 0 916.69448955 384.023683 404.69448955 404.69448955 0 0 0 512-20.71817256999998M467.66549113 204.64891318000002a26.28809033 26.28809033 0 0 1 24.9144785 27.47223809v146.83437774h178.94847656a29.17741201 29.17741201 0 0 1 11.93621397 2.60512558 27.18804287 27.18804287 0 0 1 17.19383115 26.00389424v156.30756328a27.33014092 27.33014092 0 0 1-16.90963594 25.86179706 29.88790049 29.88790049 0 0 1-12.26777519 2.74722364l-201.39992667 0.28419521H467.6181251a23.68296387 23.68296387 0 0 1-16.48334268-7.01015713l-0.75785449-0.71048935-0.71048936-0.75785449a23.68296387 23.68296387 0 0 1-7.01015712-16.48334268V232.02641924a26.28809033 26.28809033 0 0 1 24.96184365-27.47223809m24.91447852 338.19272666h158.20219951v-32.5877581l-158.20219951 0.2368292z m0-82.46408028l158.20219951-0.23683007v-31.2615123h-158.20219951zM679.67538594 187.26561797h-298.40534737V426.17935869a25.86179707 25.86179707 0 0 1-14.54134042 24.34608721 25.15130771 25.15130771 0 0 1-13.07299571 3.74190821H305.24772412a24.96184453 24.96184453 0 1 1 0-49.92368819h33.15614942v-217.12541397h-26.19335831a23.68296387 23.68296387 0 1 1 0-46.98700136h367.4175047a23.68296387 23.68296387 0 1 1-2e-8 46.98700136M333.09888945 497.51244638a23.68296387 23.68296387 0 1 1 44.14504482 16.0570503l-21.78832675 57.73906582a23.68296387 23.68296387 0 1 1-44.19241084-16.10441543zM670.7232248 322.87426932999995a23.68296387 23.68296387 0 1 1-40.68733183 23.68296475l-21.6935956-32.3509289a23.39876865 23.39876865 0 0 1-1.04204971-2.9366877l-58.63901924 46.18177998a23.68296387 23.68296387 0 1 1-30.17209658-35.99810595l134.94552978-106.33650821a23.68296387 23.68296387 0 1 1 30.21946172 35.99810508l-40.87679591 32.16146572a27.8038002 27.8038002 0 0 1 6.25230265 7.34171836z"  horiz-adv-x="1024" />

    
    <glyph glyph-name="peihuo" unicode="&#59021;" d="M476.83214899 805.84968832v-210.93117187H90.125L187.15333889 790.38140249A29.62411111 29.62411111 0 0 0 212.46508003 805.84968832z m70.31039034 1e-8h264.36706898a26.57732739 26.57732739 0 0 0 25.31174111-15.46828584L933.84968832 594.91851645H547.14253933zM90.125 524.6081252700001h843.72468832v-534.35896929a28.12415598 28.12415598 0 0 0-28.12415597-28.12415598H118.24915598a28.12415598 28.12415598 0 0 0-28.12415598 28.12415598z m492.17273492-210.93117187V243.36656304999997H793.22890679v70.31039035z m-70.31039117-140.62078152V102.74578152000004h281.24156304v70.31039036H511.98734375z"  horiz-adv-x="1024" />

    
    <glyph glyph-name="xiadan" unicode="&#59022;" d="M786.72107212 688.10701748H658.41561615a150.19285747 150.19285747 0 0 1-293.28229907 0H237.18303125A76.00655402 76.00655402 0 0 1 156.73684189 618.09397073v-585.80986048A76.00655402 76.00655402 0 0 1 237.18303125-37.728935670000055h549.44924854A76.00655402 76.00655402 0 0 1 867.07846915 32.284110260000034V618.09397073a75.91776169 75.91776169 0 0 1-80.35739703 70.01304675zM511.90765552 724.29004394a59.49111099 59.49111099 0 0 0 61.35575812-57.40448263 61.48894703 61.48894703 0 0 0-122.71151625 0A59.53550757 59.53550757 0 0 0 511.90765552 724.29004394z m3.46291562-599.75031445L408.1977782 241.96807957l64.81867292 1.1543052V412.22808802h79.91343374l0.44396329-167.64062367 64.81867373 1.15430521z"  horiz-adv-x="1024" />

    
    </font>
</defs>
</svg>
